<svg width="92" height="92" viewBox="0 0 92 92" fill="none" xmlns="http://www.w3.org/2000/svg">
<g clip-path="url(#clip0_202_1382)">
<path fill-rule="evenodd" clip-rule="evenodd" d="M44.0834 11.5C47.8517 11.5003 51.5164 12.734 54.5177 15.0126C57.519 17.2913 59.6919 20.4897 60.7048 24.1193L60.9041 24.9052L68.0724 23.115C68.5964 22.9846 69.1419 22.9663 69.6734 23.0614C70.2049 23.1565 70.7104 23.3628 71.1566 23.6668C71.6028 23.9708 71.9798 24.3656 72.2628 24.8255C72.5458 25.2853 72.7285 25.7997 72.7989 26.335L72.8334 26.8333V33.7717C74.9945 35.8437 76.7656 38.2873 78.0621 40.986L78.5911 42.1667H80.5001C81.439 42.1668 82.3452 42.5115 83.0468 43.1354C83.7485 43.7593 84.1967 44.619 84.3066 45.5515L84.3334 46V57.5C84.3335 58.1309 84.1779 58.7521 83.8803 59.3085C83.5827 59.8649 83.1524 60.3392 82.6276 60.6893L82.2136 60.927L77.7363 63.1695C75.9033 66.7157 73.2482 69.7716 69.9929 72.082L69.0001 72.749V76.6667C69 77.6056 68.6553 78.5118 68.0313 79.2134C67.4074 79.9151 66.5477 80.3633 65.6153 80.4732L65.1668 80.5H53.6667C52.7278 80.4999 51.8216 80.1552 51.12 79.5312C50.4184 78.9073 49.9701 78.0476 49.8602 77.1152L49.8334 76.6667H46.0001C46 77.6056 45.6553 78.5118 45.0313 79.2134C44.4074 79.9151 43.5477 80.3633 42.6152 80.4732L42.1667 80.5H30.6667C29.7278 80.4999 28.8216 80.1552 28.12 79.5312C27.4184 78.9073 26.9701 78.0476 26.8602 77.1152L26.8334 76.6667V72.749C24.0641 70.9785 21.672 68.6783 19.7945 65.9805C17.917 63.2826 16.5912 60.2404 15.8931 57.0285C13.6327 56.3558 11.6335 55.0047 10.1663 53.1583C8.69903 51.3119 7.83451 49.0593 7.68975 46.7053L7.66675 46V44.0833C7.66783 43.1063 8.04195 42.1665 8.71267 41.4561C9.38338 40.7456 10.3001 40.3181 11.2754 40.2608C12.2508 40.2036 13.2112 40.5209 13.9604 41.148C14.7097 41.7751 15.1912 42.6646 15.3066 43.6348L15.3334 44.0833V46C15.3334 46.5673 15.4561 47.1078 15.6784 47.5908C16.2635 44.1397 17.5687 40.8505 19.5092 37.9372C21.4496 35.024 23.9817 32.5519 26.9407 30.682C26.6688 28.2689 26.9094 25.8255 27.6468 23.5117C28.3842 21.198 29.6019 19.066 31.2201 17.2553C32.8383 15.4446 34.8206 13.996 37.0372 13.0042C39.2539 12.0124 41.655 11.4998 44.0834 11.5ZM61.3334 42.1667C60.3168 42.1667 59.3417 42.5705 58.6228 43.2894C57.904 44.0083 57.5001 44.9833 57.5001 46C57.5001 47.0167 57.904 47.9917 58.6228 48.7106C59.3417 49.4295 60.3168 49.8333 61.3334 49.8333C62.3501 49.8333 63.3251 49.4295 64.044 48.7106C64.7629 47.9917 65.1668 47.0167 65.1668 46C65.1668 44.9833 64.7629 44.0083 64.044 43.2894C63.3251 42.5705 62.3501 42.1667 61.3334 42.1667ZM44.0834 19.1667C41.7615 19.1667 39.5186 20.0096 37.7715 21.5389C36.0243 23.0682 34.8918 25.1797 34.5844 27.4812C36.4421 27.0498 38.343 26.8324 40.2501 26.8333H53.1952L53.4636 26.7682C53.009 24.6175 51.8289 22.6885 50.1211 21.3045C48.4133 19.9205 46.2816 19.1658 44.0834 19.1667Z" fill="#64449F"/>
</g>
<defs>
<clipPath id="clip0_202_1382">
<rect width="92" height="92" fill="white"/>
</clipPath>
</defs>
</svg>
