<svg width="69" height="69" viewBox="0 0 69 69" fill="none" xmlns="http://www.w3.org/2000/svg">
<path d="M15.2964 0V10.8111H20.974V0H15.2964ZM48.0259 0V10.8111H53.695V0H48.0259ZM3.69336 5.19616V20.3317H65.3065V5.19616H57.7544V14.8649H43.9664V5.19616H25.025V14.8649H11.2455V5.19616H3.69336ZM3.69336 24.3057V69H65.3065V24.3057L3.69336 24.3057ZM27.8965 34.6325C31.0328 34.6634 34.0008 36.1702 35.1808 38.974C35.7358 40.6489 36.0312 42.4343 35.3403 43.9935C34.4754 45.7923 32.7219 46.7288 31.0017 47.3323C34.2302 48.1746 36.355 50.205 36.3744 53.5027C36.3224 55.7647 35.2637 57.7683 33.6652 59.0777C31.9656 60.4215 29.9105 61.1721 27.8965 61.1859C22.2169 61.1859 19.3758 58.6251 19.3758 53.5027H24.3897C24.4962 55.6593 25.5159 57.2996 27.6145 57.3286C30.2823 57.1468 31.3386 55.3939 31.3606 53.1494C31.3594 51.7938 30.8645 50.4044 29.6855 49.8819C28.1647 49.25 26.4669 49.3251 24.985 49.3236V45.4236C27.4073 45.4741 30.7348 45.0468 30.7595 42.1589C30.6653 40.0348 29.7959 38.5193 27.7341 38.4926C25.5378 38.625 24.3326 39.8735 24.3099 41.8455H19.3758C19.483 36.8733 23.5675 34.6547 27.8965 34.6325ZM45.2028 35.1139H49.6213V60.7129H44.841V40.1278C43.0096 41.6937 40.9826 42.8087 38.7532 43.4722V39.0937C41.3541 38.0851 43.5042 36.7595 45.2028 35.1139Z" fill="#64449F"/>
</svg>
