<svg width="68" height="68" viewBox="0 0 68 68" fill="none" xmlns="http://www.w3.org/2000/svg">
<path d="M61.8093 13.1502C61.5547 12.8594 61.2428 12.6243 60.8931 12.4596C60.5434 12.2949 60.1635 12.2041 59.7772 12.193C53.7749 12.0361 46.1798 5.61792 41.1583 3.0993C38.0564 1.54838 36.0086 0.525766 34.4707 0.256381C34.1585 0.21088 33.8412 0.211761 33.5292 0.258996C31.9913 0.528381 29.9435 1.551 26.8443 3.10192C21.8227 5.61792 14.2276 12.0361 8.22533 12.193C7.8387 12.2047 7.4586 12.2957 7.10859 12.4604C6.75857 12.6251 6.44611 12.8599 6.19057 13.1502C5.66088 13.7495 5.38759 14.5327 5.42949 15.3315C6.71887 41.5455 16.1212 57.7687 32.619 67.1971C33.048 67.4404 33.524 67.5659 33.9973 67.5659C34.4707 67.5659 34.9467 67.4404 35.3783 67.1971C51.8761 57.7687 61.2758 41.5455 62.5678 15.3315C62.6121 14.5329 62.3396 13.749 61.8093 13.1502ZM48.6906 23.4601L34.7689 44.0039C34.2693 44.7415 33.4847 45.2305 32.708 45.2305C31.9286 45.2305 31.0629 44.8042 30.5163 44.2576L20.7033 34.4421C20.383 34.1205 20.2031 33.6851 20.2031 33.2311C20.2031 32.7772 20.383 32.3418 20.7033 32.0202L23.1278 29.5905C23.45 29.2714 23.8852 29.0924 24.3387 29.0924C24.7922 29.0924 25.2274 29.2714 25.5496 29.5905L31.9312 35.9721L43.0178 19.6076C43.2743 19.2331 43.6686 18.9754 44.1145 18.8906C44.5604 18.8058 45.0218 18.9009 45.3978 19.1551L48.2355 21.0801C48.6104 21.3362 48.8687 21.7303 48.954 22.1762C49.0392 22.6222 48.9445 23.0837 48.6906 23.4601Z" fill="#64449F"/>
</svg>
