<svg width="19" height="14" viewBox="0 0 19 14" fill="none" xmlns="http://www.w3.org/2000/svg">
<g clip-path="url(#clip0_2248_571)">
<path fill-rule="evenodd" clip-rule="evenodd" d="M0 1.56873C0.00132028 1.15309 0.162344 0.754871 0.447925 0.460972C0.733506 0.167072 1.12045 0.00135874 1.52432 0H17.4757C17.8357 0.0014702 18.1837 0.133523 18.4585 0.372937C18.7332 0.612351 18.9172 0.943797 18.978 1.30899L9.13594 7.13657L0 1.56873ZM0 12.4313V3.56725L9.13694 8.79084L18.978 3.16528L19 3.14982V12.4344C18.9968 12.8487 18.835 13.2451 18.5496 13.5375C18.2642 13.8298 17.8783 13.9945 17.4757 13.9959H1.52432C1.12114 13.9945 0.734798 13.8294 0.449331 13.5364C0.163863 13.2434 0.00237418 12.8462 0 12.4313Z" fill="#7D55C7"/>
</g>
<defs>
<clipPath id="clip0_2248_571">
<rect width="19" height="14" fill="white"/>
</clipPath>
</defs>
</svg>
