<svg width="62" height="62" viewBox="0 0 62 62" fill="none" xmlns="http://www.w3.org/2000/svg">
<path d="M43.8909 12.9167L45.5184 16.4559L49.0575 18.0834L45.5184 19.7109L43.8909 23.2501L42.2634 19.7109L38.7242 18.0834L42.2634 16.4559L43.8909 12.9167ZM28.4167 15.8359V10.3334H33.5834C35.0559 10.3334 36.425 10.7726 37.5875 11.4959L41.2817 7.80175C39.0756 6.09995 36.3696 5.17373 33.5834 5.16675H19.375V10.3334H23.25V15.8617C21.0173 16.3282 18.9476 17.3768 17.2508 18.9012C15.554 20.4255 14.2905 22.3715 13.5884 24.5417H23.87L38.75 30.0959V28.4942C38.7506 25.5166 37.7224 22.6301 35.8394 20.3234C33.9564 18.0167 31.3342 16.4315 28.4167 15.8359ZM2.58337 56.8334H12.9167V28.4167H2.58337V56.8334ZM51.6667 43.9167H33.5834L28.1842 42.0309L29.0367 39.6026L33.5834 41.3334H40.8684C42.5475 41.3334 43.9167 39.9642 43.9167 38.2851C43.9167 37.0192 43.1159 35.8826 41.9275 35.4176L23.1725 28.4167H18.0834V51.7184L36.1667 56.8334L56.8334 49.0834C56.8075 46.2417 54.5342 43.9167 51.6667 43.9167ZM51.6667 36.1667C54.5084 36.1667 56.8334 33.8417 56.8334 31.0001C56.8334 28.1584 51.6667 20.6667 51.6667 20.6667C51.6667 20.6667 46.5 28.1584 46.5 31.0001C46.5 33.8417 48.825 36.1667 51.6667 36.1667Z" fill="#64449F"/>
</svg>
