<svg width="10" height="24" viewBox="0 0 10 24" fill="none" xmlns="http://www.w3.org/2000/svg">
<path d="M4.51962 24H1.1187C0.822698 24 0.538824 23.8854 0.329518 23.6815C0.120211 23.4776 0.00261974 23.2011 0.00261974 22.9127V6.04167C-0.0224347 5.22898 0.132467 4.42057 0.456777 3.67142C0.781088 2.92227 1.2672 2.24995 1.88207 1.70018C3.13679 0.566728 4.8039 0 6.88339 0H8.87603C9.02282 -3.97718e-07 9.16816 0.0282147 9.30374 0.0830167C9.43932 0.137819 9.56247 0.218137 9.66615 0.319373C9.76982 0.42061 9.85198 0.540764 9.90791 0.672976C9.96384 0.805189 9.99246 0.946858 9.99211 1.08986V3.91067C9.99246 4.05367 9.96384 4.19534 9.90791 4.32756C9.85198 4.45977 9.76982 4.57992 9.66615 4.68116C9.56247 4.7824 9.43932 4.86271 9.30374 4.91752C9.16816 4.97232 9.02282 5.00053 8.87603 5.00053H7.3809C6.71756 5.00053 6.25954 5.17748 6.00684 5.53649C5.90219 5.70021 5.84459 5.88828 5.84004 6.0811C5.8355 6.27391 5.8842 6.46438 5.98102 6.6326C6.07785 6.80082 6.21927 6.94063 6.3905 7.03741C6.56174 7.1342 6.75651 7.18441 6.95447 7.18282H8.88392C9.17992 7.18282 9.46381 7.29738 9.67312 7.50128C9.88243 7.70519 10 7.98174 10 8.27011V11.0909C10 11.3793 9.88243 11.6558 9.67312 11.8598C9.46381 12.0637 9.17992 12.1782 8.88392 12.1782H6.75442C6.45771 12.1782 6.17315 12.293 5.96335 12.4974C5.75355 12.7018 5.6357 12.979 5.6357 13.2681V22.8896C5.63885 23.0343 5.61231 23.1782 5.55763 23.3128C5.50296 23.4474 5.42125 23.57 5.3173 23.6734C5.21335 23.7768 5.08924 23.859 4.95226 23.9151C4.81528 23.9712 4.6682 24 4.51962 24Z" fill="#7D55C7"/>
</svg>
