<svg width="55" height="53" viewBox="0 0 55 53" fill="none" xmlns="http://www.w3.org/2000/svg">
<path d="M24.0625 9.82342L25.7812 6.54895L29.2188 4.91171L25.7812 3.27447L24.0625 0L22.3438 3.27447L18.9062 4.91171L22.3438 6.54895L24.0625 9.82342ZM8.59375 16.3724L11.4576 10.9153L17.1875 8.18618L11.4576 5.45712L8.59375 0L5.72988 5.45712L0 8.18618L5.72988 10.9153L8.59375 16.3724ZM46.4062 29.4703L43.5424 34.9274L37.8125 37.6564L43.5424 40.3855L46.4062 45.8426L49.2701 40.3855L55 37.6564L49.2701 34.9274L46.4062 29.4703ZM53.9924 9.6423L44.8776 0.95983C44.2073 0.319261 43.3275 0 42.4478 0C41.568 0 40.6882 0.319261 40.0168 0.95983L1.00762 38.119C-0.335156 39.3981 -0.335156 41.4712 1.00762 42.7493L10.1224 51.4318C10.7938 52.0713 11.6735 52.3906 12.5522 52.3906C13.432 52.3906 14.3118 52.0713 14.9832 51.4318L53.9924 14.2716C55.3352 12.9945 55.3352 10.9204 53.9924 9.6423ZM38.6128 20.8195L33.1439 15.61L42.4467 6.74849L47.9155 11.958L38.6128 20.8195Z" fill="#64449F"/>
</svg>
