<svg width="1440" height="246" viewBox="0 0 1440 246" fill="none" xmlns="http://www.w3.org/2000/svg">
<rect width="1440" height="246" fill="#CBBBE8"/>
<g clip-path="url(#clip0_2269_1323)">
<path d="M1245.72 83.52H1244.23C1239.92 83.52 1235.79 85.2079 1232.74 88.2125C1229.69 91.2171 1227.98 95.2921 1227.98 99.5412V151.021H1263.65V101.196C1263.65 96.5083 1261.76 92.0123 1258.4 88.6973C1255.03 85.3823 1250.47 83.52 1245.72 83.52ZM1257.77 116.114C1257.77 116.833 1257.47 117.52 1256.96 118.029C1256.44 118.537 1255.74 118.825 1255.02 118.83H1249.5V124.242C1249.5 124.962 1249.21 125.653 1248.7 126.162C1248.18 126.672 1247.48 126.958 1246.75 126.958H1244.86C1244.12 126.958 1243.42 126.672 1242.91 126.162C1242.39 125.653 1242.1 124.962 1242.1 124.242V118.852H1236.61C1235.88 118.852 1235.18 118.565 1234.66 118.056C1234.15 117.547 1233.86 116.856 1233.86 116.135V114.268C1233.86 113.548 1234.15 112.857 1234.66 112.347C1235.18 111.838 1235.88 111.552 1236.61 111.552H1242.1V106.119C1242.11 105.403 1242.4 104.717 1242.91 104.213C1243.43 103.708 1244.13 103.425 1244.86 103.425H1246.75C1247.11 103.422 1247.47 103.489 1247.8 103.624C1248.14 103.758 1248.44 103.956 1248.7 104.206C1248.95 104.457 1249.16 104.755 1249.29 105.083C1249.43 105.412 1249.5 105.764 1249.5 106.119V111.552H1255.02C1255.75 111.552 1256.45 111.838 1256.96 112.347C1257.48 112.857 1257.77 113.548 1257.77 114.268V116.114Z" fill="#64449F"/>
<path d="M1249.35 66.5225H1240.64C1235.01 66.5225 1230.45 71.0162 1230.45 76.5596C1230.45 82.103 1235.01 86.5967 1240.64 86.5967H1249.35C1254.98 86.5967 1259.54 82.103 1259.54 76.5596C1259.54 71.0162 1254.98 66.5225 1249.35 66.5225Z" fill="#64449F"/>
<path d="M1249.03 76.6233V58.9894L1244.98 62.9576H1268.1C1269.12 62.8841 1270.08 62.433 1270.77 61.695C1271.47 60.9569 1271.86 59.9865 1271.86 58.9788C1271.86 57.9711 1271.47 57.0007 1270.77 56.2626C1270.08 55.5245 1269.12 55.0734 1268.1 55H1244.98C1243.92 55.0165 1242.9 55.4428 1242.15 56.188C1241.4 56.9332 1240.97 57.9384 1240.96 58.9894V76.6233C1241.03 77.6284 1241.49 78.5684 1242.24 79.2545C1242.99 79.9406 1243.97 80.322 1245 80.322C1246.02 80.322 1247 79.9406 1247.75 79.2545C1248.5 78.5684 1248.96 77.6284 1249.03 76.6233Z" fill="#64449F"/>
</g>
<g clip-path="url(#clip1_2269_1323)">
<path d="M616.079 96.0557H528.777C528.777 96.0557 532.639 138.909 572.446 140C612.252 141.091 616.079 96.0557 616.079 96.0557Z" fill="#64449F"/>
<path d="M532.603 93.3275C523.591 92.0542 512.754 95.2191 510.501 105.441C509.567 109.18 509.856 113.125 511.323 116.682C512.656 119.272 514.628 121.466 517.046 123.048C522.071 126.334 527.648 128.652 533.497 129.887C537.444 130.877 541.445 131.63 545.479 132.142C546.083 132.198 546.691 132.125 547.266 131.929C547.84 131.732 548.368 131.415 548.816 131C549.264 130.584 549.621 130.078 549.866 129.513C550.11 128.949 550.237 128.339 550.237 127.723C550.237 127.106 550.11 126.496 549.866 125.932C549.621 125.368 549.264 124.861 548.816 124.446C548.368 124.03 547.84 123.713 547.266 123.516C546.691 123.32 546.083 123.247 545.479 123.303C544.513 123.303 546.516 123.303 545.98 123.303L544.263 123.048C542.367 122.757 540.507 122.393 538.683 121.993C536.18 121.447 533.748 120.793 531.316 120.029C530.028 119.629 528.777 119.156 527.525 118.683L526.666 118.319C526.416 118.319 527.382 118.646 526.666 118.319L524.771 117.409C523.718 116.861 522.702 116.241 521.731 115.554C521.731 115.554 520.765 114.79 521.302 115.263C521.838 115.736 521.302 115.263 521.051 115.009C520.624 114.658 520.228 114.269 519.871 113.844C519.871 113.663 519.299 112.935 519.621 113.553C519.943 114.172 519.621 113.553 519.621 113.335L519.299 112.717V112.098C519.282 111.99 519.282 111.879 519.299 111.771C519.12 111.225 519.12 111.771 519.299 111.771C519.299 112.317 519.478 111.771 519.299 111.771C519.299 111.225 519.299 111.371 519.299 111.153C519.299 110.934 519.299 110.243 519.299 109.77C519.299 109.297 519.299 109.043 519.299 108.679C519.299 108.315 519.478 107.733 519.299 108.679C519.428 107.967 519.595 107.262 519.8 106.569C519.978 105.987 520.121 105.987 519.8 106.569C519.8 106.314 520.014 106.06 520.157 105.841L520.551 105.15C520.264 105.368 521.123 104.241 520.551 105.15C520.914 104.829 521.26 104.489 521.588 104.132C520.837 104.568 522.089 103.586 521.588 104.132L522.267 103.695C522.267 103.695 523.483 102.858 523.626 102.968C522.589 103.368 523.77 103.077 523.626 102.968L524.377 102.713C524.915 102.529 525.465 102.383 526.023 102.276H526.774C527.704 102.094 526.774 102.495 526.559 102.276C527.481 102.319 528.404 102.258 529.313 102.095C529.968 102.058 530.625 102.058 531.28 102.095C532.21 102.095 532.46 102.095 530.994 102.095C532.107 102.369 533.281 102.202 534.278 101.628C535.274 101.053 536.018 100.115 536.359 99.0024C536.511 98.4434 536.552 97.8596 536.481 97.2842C536.411 96.7088 536.229 96.1533 535.946 95.6496C535.664 95.1459 535.286 94.704 534.835 94.3491C534.384 93.9943 533.869 93.7337 533.319 93.5821L532.603 93.3275Z" fill="#64449F"/>
<path d="M615.721 101.84C614.756 101.84 614.255 102.022 615.221 101.84C615.768 101.804 616.318 101.804 616.866 101.84C617.628 101.785 618.393 101.785 619.155 101.84H619.763C620.514 101.84 619.763 101.84 619.441 101.84C619.886 101.963 620.341 102.048 620.8 102.095L622.23 102.458L622.874 102.677C623.125 102.677 623.804 103.186 623.232 102.677C622.66 102.167 623.232 102.677 623.447 102.677L624.162 103.077L624.77 103.477L625.056 103.659C625.449 103.877 624.484 103.077 624.77 103.44C625.056 103.804 625.485 104.132 625.807 104.459C625.449 103.841 626.129 104.786 625.807 104.459L626.272 105.223C626.272 105.478 626.522 105.732 626.665 105.951C626.808 106.169 626.665 105.587 626.665 105.55V105.951C626.88 106.642 626.987 107.369 627.202 108.06C627.416 108.752 627.202 107.733 627.202 107.697C627.217 107.866 627.217 108.037 627.202 108.206C627.202 108.57 627.202 108.933 627.202 109.297C627.383 110.148 627.383 111.029 627.202 111.88C627.202 111.88 627.452 110.825 627.202 111.407C626.952 111.989 627.202 111.625 627.202 111.735C627.122 111.947 627.062 112.166 627.023 112.389C627.023 112.571 627.488 111.444 627.023 112.171L626.665 112.862C626.665 113.044 626.129 113.881 626.451 113.19C626.773 112.498 626.451 113.19 626.451 113.408L625.306 114.572L624.734 115.081C625.163 114.754 625.271 114.536 624.734 115.081C624.261 115.451 623.759 115.779 623.232 116.064C622.084 116.744 620.888 117.34 619.656 117.846C618.904 118.173 619.226 118.064 619.656 117.846L618.797 118.21L616.794 118.974C614.364 119.828 611.893 120.556 609.391 121.156C607.138 121.702 604.849 122.175 602.56 122.539L600.414 122.903H600.7C599.557 122.93 598.468 123.401 597.657 124.22C596.845 125.039 596.373 126.142 596.337 127.304C596.337 127.887 596.45 128.464 596.669 129.003C596.888 129.541 597.209 130.03 597.615 130.442C598.02 130.855 598.501 131.181 599.03 131.404C599.56 131.628 600.127 131.742 600.7 131.742C610.036 130.937 619.12 128.24 627.416 123.812C630.059 122.298 632.342 120.211 634.104 117.7C635.768 114.894 636.484 111.611 636.143 108.351C636 105.074 634.87 101.92 632.906 99.3174C630.942 96.7148 628.239 94.7889 625.163 93.8004C621.416 92.6158 617.45 92.3294 613.575 92.9637C612.469 93.2783 611.53 94.0239 610.961 95.0387C610.392 96.0534 610.239 97.2553 610.535 98.3839C610.868 99.5013 611.611 100.446 612.61 101.021C613.608 101.597 614.786 101.76 615.9 101.476L615.721 101.84Z" fill="#64449F"/>
</g>
<path d="M119.08 118.6V145H114.4V118.6H119.08ZM124.132 124.6L127.812 124.12L128.012 127.72C128.519 126.44 129.292 125.467 130.332 124.8C131.399 124.133 132.639 123.8 134.052 123.8C135.626 123.8 136.852 124.12 137.732 124.76C138.612 125.373 139.239 126.293 139.612 127.52C140.652 125.04 142.546 123.8 145.292 123.8C147.532 123.8 149.092 124.427 149.972 125.68C150.852 126.907 151.292 128.787 151.292 131.32V141.72C151.292 143.027 151.706 143.907 152.532 144.36C152.319 144.76 151.972 145.067 151.492 145.28C151.012 145.493 150.506 145.6 149.972 145.6C148.932 145.6 148.159 145.307 147.652 144.72C147.146 144.133 146.892 143.307 146.892 142.24V131.88C146.892 130.2 146.706 128.947 146.332 128.12C145.959 127.293 145.132 126.88 143.852 126.88C142.332 126.88 141.319 127.6 140.812 129.04C140.306 130.48 140.052 132.333 140.052 134.6V145H135.652V131.88C135.652 130.2 135.466 128.947 135.092 128.12C134.719 127.293 133.892 126.88 132.612 126.88C130.986 126.88 129.892 127.6 129.332 129.04C128.799 130.48 128.532 132.333 128.532 134.6V145H124.132V124.6ZM166.516 123.8C169.023 123.8 170.809 124.813 171.876 126.84C172.943 128.84 173.476 131.4 173.476 134.52C173.476 137.933 172.743 140.68 171.276 142.76C169.809 144.84 167.556 145.88 164.516 145.88C163.236 145.88 162.076 145.707 161.036 145.36V152.24L156.636 152.72V124.6L160.316 124.12L160.516 127.72C161.636 125.107 163.636 123.8 166.516 123.8ZM164.956 126.88C163.569 126.88 162.569 127.44 161.956 128.56C161.343 129.653 161.036 131.04 161.036 132.72V142.24C162.263 143.067 163.489 143.48 164.716 143.48C166.343 143.48 167.409 142.653 167.916 141C168.423 139.347 168.676 137.253 168.676 134.72C168.676 132.347 168.449 130.453 167.996 129.04C167.543 127.6 166.529 126.88 164.956 126.88ZM181.893 116.52V141.72C181.893 143.027 182.307 143.907 183.133 144.36C182.92 144.76 182.56 145.067 182.053 145.28C181.573 145.493 181.067 145.6 180.533 145.6C179.52 145.6 178.76 145.307 178.253 144.72C177.747 144.133 177.493 143.307 177.493 142.24V117L181.893 116.52ZM200.372 139.36C200.985 139.653 201.292 140.227 201.292 141.08C201.292 142.04 200.972 142.893 200.332 143.64C199.692 144.36 198.865 144.907 197.852 145.28C196.838 145.68 195.812 145.88 194.772 145.88C191.838 145.88 189.665 144.933 188.252 143.04C186.838 141.12 186.132 138.547 186.132 135.32C186.132 131.88 186.892 129.107 188.412 127C189.958 124.867 192.292 123.8 195.412 123.8C197.385 123.8 198.972 124.32 200.172 125.36C201.372 126.373 201.972 127.813 201.972 129.68C201.972 132 201.158 133.627 199.532 134.56C197.932 135.493 195.745 135.96 192.972 135.96C192.198 135.96 191.465 135.933 190.772 135.88C190.852 137.987 191.198 139.667 191.812 140.92C192.452 142.173 193.572 142.8 195.172 142.8C196.345 142.8 197.372 142.507 198.252 141.92C199.158 141.307 199.865 140.453 200.372 139.36ZM194.772 126.08C193.332 126.08 192.318 126.84 191.732 128.36C191.145 129.853 190.825 131.693 190.772 133.88C191.572 133.933 192.158 133.96 192.532 133.96C195.892 133.96 197.572 132.613 197.572 129.92C197.572 128.827 197.332 127.92 196.852 127.2C196.398 126.453 195.705 126.08 194.772 126.08ZM205.812 124.6L209.492 124.12L209.692 127.72C210.199 126.44 210.972 125.467 212.012 124.8C213.079 124.133 214.319 123.8 215.732 123.8C217.305 123.8 218.532 124.12 219.412 124.76C220.292 125.373 220.919 126.293 221.292 127.52C222.332 125.04 224.225 123.8 226.972 123.8C229.212 123.8 230.772 124.427 231.652 125.68C232.532 126.907 232.972 128.787 232.972 131.32V141.72C232.972 143.027 233.385 143.907 234.212 144.36C233.999 144.76 233.652 145.067 233.172 145.28C232.692 145.493 232.185 145.6 231.652 145.6C230.612 145.6 229.839 145.307 229.332 144.72C228.825 144.133 228.572 143.307 228.572 142.24V131.88C228.572 130.2 228.385 128.947 228.012 128.12C227.639 127.293 226.812 126.88 225.532 126.88C224.012 126.88 222.999 127.6 222.492 129.04C221.985 130.48 221.732 132.333 221.732 134.6V145H217.332V131.88C217.332 130.2 217.145 128.947 216.772 128.12C216.399 127.293 215.572 126.88 214.292 126.88C212.665 126.88 211.572 127.6 211.012 129.04C210.479 130.48 210.212 132.333 210.212 134.6V145H205.812V124.6ZM251.036 139.36C251.649 139.653 251.956 140.227 251.956 141.08C251.956 142.04 251.636 142.893 250.996 143.64C250.356 144.36 249.529 144.907 248.516 145.28C247.502 145.68 246.476 145.88 245.436 145.88C242.502 145.88 240.329 144.933 238.916 143.04C237.502 141.12 236.796 138.547 236.796 135.32C236.796 131.88 237.556 129.107 239.076 127C240.622 124.867 242.956 123.8 246.076 123.8C248.049 123.8 249.636 124.32 250.836 125.36C252.036 126.373 252.636 127.813 252.636 129.68C252.636 132 251.822 133.627 250.196 134.56C248.596 135.493 246.409 135.96 243.636 135.96C242.862 135.96 242.129 135.933 241.436 135.88C241.516 137.987 241.862 139.667 242.476 140.92C243.116 142.173 244.236 142.8 245.836 142.8C247.009 142.8 248.036 142.507 248.916 141.92C249.822 141.307 250.529 140.453 251.036 139.36ZM245.436 126.08C243.996 126.08 242.982 126.84 242.396 128.36C241.809 129.853 241.489 131.693 241.436 133.88C242.236 133.933 242.822 133.96 243.196 133.96C246.556 133.96 248.236 132.613 248.236 129.92C248.236 128.827 247.996 127.92 247.516 127.2C247.062 126.453 246.369 126.08 245.436 126.08ZM256.476 124.6L260.156 124.12L260.356 127.72C260.863 126.44 261.636 125.467 262.676 124.8C263.743 124.133 264.983 123.8 266.396 123.8C268.636 123.8 270.196 124.427 271.076 125.68C271.956 126.907 272.396 128.787 272.396 131.32V141.72C272.396 143.027 272.809 143.907 273.636 144.36C273.423 144.76 273.076 145.067 272.596 145.28C272.116 145.493 271.609 145.6 271.076 145.6C270.036 145.6 269.263 145.307 268.756 144.72C268.249 144.133 267.996 143.307 267.996 142.24V131.88C267.996 130.2 267.809 128.947 267.436 128.12C267.063 127.293 266.236 126.88 264.956 126.88C263.329 126.88 262.236 127.6 261.676 129.04C261.143 130.48 260.876 132.333 260.876 134.6V145H256.476V124.6ZM275.169 126.4L275.129 125.2C276.329 124.72 277.462 124.08 278.529 123.28C279.622 122.48 280.542 121.6 281.289 120.64H282.529V124.6H286.209V126.4H282.449V140.96C282.449 141.76 282.595 142.36 282.889 142.76C283.182 143.16 283.649 143.413 284.289 143.52C284.155 144.133 283.795 144.627 283.209 145C282.649 145.4 281.995 145.6 281.249 145.6C279.089 145.6 278.009 144.373 278.009 141.92V126.4H275.169ZM296.415 123.8C299.402 123.8 301.615 124.773 303.055 126.72C304.495 128.64 305.215 131.24 305.215 134.52C305.215 138.013 304.522 140.787 303.135 142.84C301.748 144.867 299.508 145.88 296.415 145.88C293.375 145.88 291.148 144.907 289.735 142.96C288.348 141.013 287.655 138.333 287.655 134.92C287.655 131.613 288.375 128.933 289.815 126.88C291.255 124.827 293.455 123.8 296.415 123.8ZM296.415 143.48C298.068 143.48 299.148 142.667 299.655 141.04C300.162 139.413 300.415 137.307 300.415 134.72C300.415 132.347 300.135 130.333 299.575 128.68C299.042 127.027 297.988 126.2 296.415 126.2C293.775 126.2 292.455 129.04 292.455 134.72C292.455 137.307 292.695 139.413 293.175 141.04C293.682 142.667 294.762 143.48 296.415 143.48ZM315.612 125.92C314.812 125.92 314.172 126.133 313.692 126.56C313.212 126.96 312.972 127.547 312.972 128.32C312.972 129.36 313.319 130.213 314.012 130.88C314.732 131.52 315.826 132.24 317.292 133.04C318.466 133.68 319.399 134.253 320.092 134.76C320.812 135.267 321.426 135.92 321.932 136.72C322.439 137.493 322.692 138.44 322.692 139.56C322.692 141.587 321.959 143.147 320.492 144.24C319.052 145.333 317.212 145.88 314.972 145.88C313.026 145.88 311.386 145.547 310.052 144.88C308.746 144.213 308.092 143.107 308.092 141.56C308.092 140.653 308.372 139.96 308.932 139.48C309.492 139 310.252 138.76 311.212 138.76C311.906 138.76 312.439 138.907 312.812 139.2C312.599 139.84 312.492 140.44 312.492 141C312.492 141.853 312.759 142.533 313.292 143.04C313.826 143.52 314.546 143.76 315.452 143.76C316.439 143.76 317.186 143.507 317.692 143C318.226 142.467 318.492 141.693 318.492 140.68C318.492 139.64 318.132 138.8 317.412 138.16C316.719 137.493 315.639 136.76 314.172 135.96C312.999 135.293 312.052 134.707 311.332 134.2C310.639 133.693 310.039 133.053 309.532 132.28C309.026 131.48 308.772 130.52 308.772 129.4C308.772 127.613 309.492 126.24 310.932 125.28C312.372 124.293 314.119 123.8 316.172 123.8C318.066 123.8 319.612 124.147 320.812 124.84C322.039 125.507 322.652 126.613 322.652 128.16C322.652 129.067 322.359 129.76 321.772 130.24C321.212 130.72 320.452 130.96 319.492 130.96C318.799 130.96 318.266 130.813 317.892 130.52C318.106 129.88 318.212 129.28 318.212 128.72C318.212 127.84 317.986 127.16 317.532 126.68C317.106 126.173 316.466 125.92 315.612 125.92Z" fill="#64449F"/>
<path d="M113.584 99V86.31H114.754L122.89 97.11H122.476V86.31H123.862V99H122.71L114.574 88.2H114.97V99H113.584ZM130.055 99.162C128.987 99.162 128.177 98.868 127.625 98.28C127.085 97.692 126.815 96.792 126.815 95.58V89.964H128.273V95.544C128.273 96.372 128.441 96.984 128.777 97.38C129.113 97.764 129.635 97.956 130.343 97.956C131.135 97.956 131.771 97.698 132.251 97.182C132.731 96.666 132.971 95.976 132.971 95.112V89.964H134.429V99H133.007V96.966H133.241C132.989 97.662 132.581 98.202 132.017 98.586C131.465 98.97 130.811 99.162 130.055 99.162ZM141.272 99.162C139.856 99.162 138.74 98.754 137.924 97.938C137.108 97.11 136.7 95.964 136.7 94.5C136.7 93.552 136.88 92.73 137.24 92.034C137.6 91.326 138.104 90.78 138.752 90.396C139.4 90 140.144 89.802 140.984 89.802C141.812 89.802 142.508 89.976 143.072 90.324C143.636 90.672 144.068 91.17 144.368 91.818C144.668 92.454 144.818 93.21 144.818 94.086V94.626H137.816V93.708H143.864L143.558 93.942C143.558 92.982 143.342 92.232 142.91 91.692C142.478 91.152 141.836 90.882 140.984 90.882C140.084 90.882 139.382 91.2 138.878 91.836C138.374 92.46 138.122 93.306 138.122 94.374V94.536C138.122 95.664 138.398 96.522 138.95 97.11C139.514 97.686 140.3 97.974 141.308 97.974C141.848 97.974 142.352 97.896 142.82 97.74C143.3 97.572 143.756 97.302 144.188 96.93L144.692 97.956C144.296 98.34 143.792 98.64 143.18 98.856C142.58 99.06 141.944 99.162 141.272 99.162ZM150.055 99.162C149.335 99.162 148.663 99.066 148.039 98.874C147.415 98.67 146.899 98.388 146.491 98.028L146.995 97.002C147.439 97.35 147.919 97.608 148.435 97.776C148.963 97.944 149.509 98.028 150.073 98.028C150.793 98.028 151.333 97.902 151.693 97.65C152.065 97.386 152.251 97.026 152.251 96.57C152.251 96.222 152.131 95.946 151.891 95.742C151.663 95.526 151.285 95.358 150.757 95.238L149.083 94.896C148.315 94.728 147.739 94.446 147.355 94.05C146.971 93.642 146.779 93.126 146.779 92.502C146.779 91.974 146.917 91.512 147.193 91.116C147.469 90.708 147.871 90.39 148.399 90.162C148.927 89.922 149.545 89.802 150.253 89.802C150.913 89.802 151.519 89.904 152.071 90.108C152.635 90.3 153.103 90.582 153.475 90.954L152.953 91.962C152.593 91.614 152.179 91.356 151.711 91.188C151.255 91.008 150.781 90.918 150.289 90.918C149.581 90.918 149.047 91.062 148.687 91.35C148.339 91.626 148.165 91.992 148.165 92.448C148.165 92.796 148.273 93.084 148.489 93.312C148.717 93.528 149.065 93.69 149.533 93.798L151.207 94.14C152.023 94.32 152.629 94.602 153.025 94.986C153.433 95.358 153.637 95.862 153.637 96.498C153.637 97.038 153.487 97.512 153.187 97.92C152.887 98.316 152.467 98.622 151.927 98.838C151.399 99.054 150.775 99.162 150.055 99.162ZM159.095 99.162C158.207 99.162 157.529 98.91 157.061 98.406C156.593 97.89 156.359 97.116 156.359 96.084V91.098H154.595V89.964H156.359V87.498L157.817 87.084V89.964H160.409V91.098H157.817V95.922C157.817 96.642 157.937 97.158 158.177 97.47C158.429 97.77 158.801 97.92 159.293 97.92C159.521 97.92 159.725 97.902 159.905 97.866C160.085 97.818 160.247 97.764 160.391 97.704V98.928C160.223 99 160.019 99.054 159.779 99.09C159.551 99.138 159.323 99.162 159.095 99.162ZM162.148 99V92.142C162.148 91.782 162.136 91.416 162.112 91.044C162.1 90.672 162.076 90.312 162.04 89.964H163.444L163.624 92.16L163.372 92.178C163.492 91.638 163.702 91.194 164.002 90.846C164.302 90.498 164.656 90.24 165.064 90.072C165.472 89.892 165.898 89.802 166.342 89.802C166.522 89.802 166.678 89.808 166.81 89.82C166.954 89.832 167.086 89.862 167.206 89.91L167.188 91.206C167.008 91.146 166.84 91.11 166.684 91.098C166.54 91.074 166.372 91.062 166.18 91.062C165.652 91.062 165.19 91.188 164.794 91.44C164.41 91.692 164.116 92.016 163.912 92.412C163.72 92.808 163.624 93.228 163.624 93.672V99H162.148ZM172.325 99.162C171.461 99.162 170.705 98.976 170.057 98.604C169.421 98.22 168.929 97.68 168.581 96.984C168.233 96.276 168.059 95.442 168.059 94.482C168.059 93.51 168.233 92.676 168.581 91.98C168.929 91.284 169.421 90.75 170.057 90.378C170.705 89.994 171.461 89.802 172.325 89.802C173.201 89.802 173.957 89.994 174.593 90.378C175.241 90.75 175.739 91.284 176.087 91.98C176.447 92.676 176.627 93.51 176.627 94.482C176.627 95.442 176.447 96.276 176.087 96.984C175.739 97.68 175.241 98.22 174.593 98.604C173.957 98.976 173.201 99.162 172.325 99.162ZM172.325 97.974C173.189 97.974 173.873 97.68 174.377 97.092C174.881 96.492 175.133 95.622 175.133 94.482C175.133 93.33 174.875 92.46 174.359 91.872C173.855 91.272 173.177 90.972 172.325 90.972C171.473 90.972 170.795 91.272 170.291 91.872C169.787 92.46 169.535 93.33 169.535 94.482C169.535 95.622 169.787 96.492 170.291 97.092C170.795 97.68 171.473 97.974 172.325 97.974ZM181.907 99.162C181.187 99.162 180.515 99.066 179.891 98.874C179.267 98.67 178.751 98.388 178.343 98.028L178.847 97.002C179.291 97.35 179.771 97.608 180.287 97.776C180.815 97.944 181.361 98.028 181.925 98.028C182.645 98.028 183.185 97.902 183.545 97.65C183.917 97.386 184.103 97.026 184.103 96.57C184.103 96.222 183.983 95.946 183.743 95.742C183.515 95.526 183.137 95.358 182.609 95.238L180.935 94.896C180.167 94.728 179.591 94.446 179.207 94.05C178.823 93.642 178.631 93.126 178.631 92.502C178.631 91.974 178.769 91.512 179.045 91.116C179.321 90.708 179.723 90.39 180.251 90.162C180.779 89.922 181.397 89.802 182.105 89.802C182.765 89.802 183.371 89.904 183.923 90.108C184.487 90.3 184.955 90.582 185.327 90.954L184.805 91.962C184.445 91.614 184.031 91.356 183.563 91.188C183.107 91.008 182.633 90.918 182.141 90.918C181.433 90.918 180.899 91.062 180.539 91.35C180.191 91.626 180.017 91.992 180.017 92.448C180.017 92.796 180.125 93.084 180.341 93.312C180.569 93.528 180.917 93.69 181.385 93.798L183.059 94.14C183.875 94.32 184.481 94.602 184.877 94.986C185.285 95.358 185.489 95.862 185.489 96.498C185.489 97.038 185.339 97.512 185.039 97.92C184.739 98.316 184.319 98.622 183.779 98.838C183.251 99.054 182.627 99.162 181.907 99.162Z" fill="black"/>
<path d="M499.074 195V182.31H500.37L505.464 193.812H504.942L510.036 182.31H511.332V195H509.964V184.236H510.504L505.698 195H504.708L499.884 184.236H500.424V195H499.074ZM517.783 195.162C516.979 195.162 516.277 194.976 515.677 194.604C515.077 194.22 514.609 193.68 514.273 192.984C513.949 192.288 513.787 191.454 513.787 190.482C513.787 189.498 513.949 188.658 514.273 187.962C514.609 187.266 515.077 186.732 515.677 186.36C516.277 185.988 516.979 185.802 517.783 185.802C518.599 185.802 519.301 186.012 519.889 186.432C520.489 186.84 520.885 187.398 521.077 188.106H520.861L521.059 185.964H522.463C522.427 186.312 522.391 186.666 522.355 187.026C522.331 187.374 522.319 187.716 522.319 188.052V195H520.861V192.876H521.059C520.867 193.584 520.471 194.142 519.871 194.55C519.271 194.958 518.575 195.162 517.783 195.162ZM518.071 193.974C518.935 193.974 519.619 193.68 520.123 193.092C520.627 192.492 520.879 191.622 520.879 190.482C520.879 189.33 520.627 188.46 520.123 187.872C519.619 187.272 518.935 186.972 518.071 186.972C517.219 186.972 516.535 187.272 516.019 187.872C515.515 188.46 515.263 189.33 515.263 190.482C515.263 191.622 515.515 192.492 516.019 193.092C516.535 193.68 517.219 193.974 518.071 193.974ZM528.144 195.162C527.424 195.162 526.752 195.066 526.128 194.874C525.504 194.67 524.988 194.388 524.58 194.028L525.084 193.002C525.528 193.35 526.008 193.608 526.524 193.776C527.052 193.944 527.598 194.028 528.162 194.028C528.882 194.028 529.422 193.902 529.782 193.65C530.154 193.386 530.34 193.026 530.34 192.57C530.34 192.222 530.22 191.946 529.98 191.742C529.752 191.526 529.374 191.358 528.846 191.238L527.172 190.896C526.404 190.728 525.828 190.446 525.444 190.05C525.06 189.642 524.868 189.126 524.868 188.502C524.868 187.974 525.006 187.512 525.282 187.116C525.558 186.708 525.96 186.39 526.488 186.162C527.016 185.922 527.634 185.802 528.342 185.802C529.002 185.802 529.608 185.904 530.16 186.108C530.724 186.3 531.192 186.582 531.564 186.954L531.042 187.962C530.682 187.614 530.268 187.356 529.8 187.188C529.344 187.008 528.87 186.918 528.378 186.918C527.67 186.918 527.136 187.062 526.776 187.35C526.428 187.626 526.254 187.992 526.254 188.448C526.254 188.796 526.362 189.084 526.578 189.312C526.806 189.528 527.154 189.69 527.622 189.798L529.296 190.14C530.112 190.32 530.718 190.602 531.114 190.986C531.522 191.358 531.726 191.862 531.726 192.498C531.726 193.038 531.576 193.512 531.276 193.92C530.976 194.316 530.556 194.622 530.016 194.838C529.488 195.054 528.864 195.162 528.144 195.162ZM537.866 195.162C536.978 195.162 536.204 194.97 535.544 194.586C534.896 194.202 534.392 193.656 534.032 192.948C533.684 192.24 533.51 191.4 533.51 190.428C533.51 189.444 533.69 188.61 534.05 187.926C534.41 187.23 534.914 186.702 535.562 186.342C536.222 185.982 536.99 185.802 537.866 185.802C538.442 185.802 539 185.904 539.54 186.108C540.092 186.312 540.548 186.6 540.908 186.972L540.386 188.016C540.026 187.668 539.63 187.41 539.198 187.242C538.778 187.074 538.364 186.99 537.956 186.99C537.02 186.99 536.294 187.284 535.778 187.872C535.262 188.46 535.004 189.318 535.004 190.446C535.004 191.562 535.262 192.426 535.778 193.038C536.294 193.65 537.02 193.956 537.956 193.956C538.352 193.956 538.76 193.878 539.18 193.722C539.612 193.566 540.014 193.308 540.386 192.948L540.908 193.974C540.536 194.358 540.074 194.652 539.522 194.856C538.97 195.06 538.418 195.162 537.866 195.162ZM546.347 195.162C545.543 195.162 544.841 194.976 544.241 194.604C543.641 194.22 543.173 193.68 542.837 192.984C542.513 192.288 542.351 191.454 542.351 190.482C542.351 189.498 542.513 188.658 542.837 187.962C543.173 187.266 543.641 186.732 544.241 186.36C544.841 185.988 545.543 185.802 546.347 185.802C547.163 185.802 547.865 186.012 548.453 186.432C549.053 186.84 549.449 187.398 549.641 188.106H549.425L549.623 185.964H551.027C550.991 186.312 550.955 186.666 550.919 187.026C550.895 187.374 550.883 187.716 550.883 188.052V195H549.425V192.876H549.623C549.431 193.584 549.035 194.142 548.435 194.55C547.835 194.958 547.139 195.162 546.347 195.162ZM546.635 193.974C547.499 193.974 548.183 193.68 548.687 193.092C549.191 192.492 549.443 191.622 549.443 190.482C549.443 189.33 549.191 188.46 548.687 187.872C548.183 187.272 547.499 186.972 546.635 186.972C545.783 186.972 545.099 187.272 544.583 187.872C544.079 188.46 543.827 189.33 543.827 190.482C543.827 191.622 544.079 192.492 544.583 193.092C545.099 193.68 545.783 193.974 546.635 193.974ZM553.666 195V188.142C553.666 187.782 553.654 187.416 553.63 187.044C553.618 186.672 553.594 186.312 553.558 185.964H554.962L555.142 188.16L554.89 188.178C555.01 187.638 555.22 187.194 555.52 186.846C555.82 186.498 556.174 186.24 556.582 186.072C556.99 185.892 557.416 185.802 557.86 185.802C558.04 185.802 558.196 185.808 558.328 185.82C558.472 185.832 558.604 185.862 558.724 185.91L558.706 187.206C558.526 187.146 558.358 187.11 558.202 187.098C558.058 187.074 557.89 187.062 557.698 187.062C557.17 187.062 556.708 187.188 556.312 187.44C555.928 187.692 555.634 188.016 555.43 188.412C555.238 188.808 555.142 189.228 555.142 189.672V195H553.666ZM560.241 195V185.964H561.699V195H560.241ZM560.061 183.912V182.274H561.861V183.912H560.061ZM564.53 195V181.752H565.988V195H564.53ZM568.819 195V181.752H570.277V195H568.819ZM576.547 195.162C575.743 195.162 575.041 194.976 574.441 194.604C573.841 194.22 573.373 193.68 573.037 192.984C572.713 192.288 572.551 191.454 572.551 190.482C572.551 189.498 572.713 188.658 573.037 187.962C573.373 187.266 573.841 186.732 574.441 186.36C575.041 185.988 575.743 185.802 576.547 185.802C577.363 185.802 578.065 186.012 578.653 186.432C579.253 186.84 579.649 187.398 579.841 188.106H579.625L579.823 185.964H581.227C581.191 186.312 581.155 186.666 581.119 187.026C581.095 187.374 581.083 187.716 581.083 188.052V195H579.625V192.876H579.823C579.631 193.584 579.235 194.142 578.635 194.55C578.035 194.958 577.339 195.162 576.547 195.162ZM576.835 193.974C577.699 193.974 578.383 193.68 578.887 193.092C579.391 192.492 579.643 191.622 579.643 190.482C579.643 189.33 579.391 188.46 578.887 187.872C578.383 187.272 577.699 186.972 576.835 186.972C575.983 186.972 575.299 187.272 574.783 187.872C574.279 188.46 574.027 189.33 574.027 190.482C574.027 191.622 574.279 192.492 574.783 193.092C575.299 193.68 575.983 193.974 576.835 193.974ZM592.015 195.162C591.223 195.162 590.527 194.976 589.927 194.604C589.327 194.22 588.859 193.68 588.523 192.984C588.199 192.288 588.037 191.454 588.037 190.482C588.037 189.498 588.199 188.658 588.523 187.962C588.859 187.266 589.327 186.732 589.927 186.36C590.527 185.988 591.223 185.802 592.015 185.802C592.831 185.802 593.533 186.006 594.121 186.414C594.721 186.822 595.123 187.374 595.327 188.07H595.111V181.752H596.569V195H595.129V192.84H595.327C595.135 193.56 594.739 194.13 594.139 194.55C593.539 194.958 592.831 195.162 592.015 195.162ZM592.321 193.974C593.173 193.974 593.857 193.68 594.373 193.092C594.889 192.492 595.147 191.622 595.147 190.482C595.147 189.33 594.889 188.46 594.373 187.872C593.857 187.272 593.173 186.972 592.321 186.972C591.469 186.972 590.785 187.272 590.269 187.872C589.765 188.46 589.513 189.33 589.513 190.482C589.513 191.622 589.765 192.492 590.269 193.092C590.785 193.68 591.469 193.974 592.321 193.974ZM603.402 195.162C601.986 195.162 600.87 194.754 600.054 193.938C599.238 193.11 598.83 191.964 598.83 190.5C598.83 189.552 599.01 188.73 599.37 188.034C599.73 187.326 600.234 186.78 600.882 186.396C601.53 186 602.274 185.802 603.114 185.802C603.942 185.802 604.638 185.976 605.202 186.324C605.766 186.672 606.198 187.17 606.498 187.818C606.798 188.454 606.948 189.21 606.948 190.086V190.626H599.946V189.708H605.994L605.688 189.942C605.688 188.982 605.472 188.232 605.04 187.692C604.608 187.152 603.966 186.882 603.114 186.882C602.214 186.882 601.512 187.2 601.008 187.836C600.504 188.46 600.252 189.306 600.252 190.374V190.536C600.252 191.664 600.528 192.522 601.08 193.11C601.644 193.686 602.43 193.974 603.438 193.974C603.978 193.974 604.482 193.896 604.95 193.74C605.43 193.572 605.886 193.302 606.318 192.93L606.822 193.956C606.426 194.34 605.922 194.64 605.31 194.856C604.71 195.06 604.074 195.162 603.402 195.162ZM617.076 195.162C616.188 195.162 615.51 194.91 615.042 194.406C614.574 193.89 614.34 193.116 614.34 192.084V187.098H612.576V185.964H614.34V183.498L615.798 183.084V185.964H618.39V187.098H615.798V191.922C615.798 192.642 615.918 193.158 616.158 193.47C616.41 193.77 616.782 193.92 617.274 193.92C617.502 193.92 617.706 193.902 617.886 193.866C618.066 193.818 618.228 193.764 618.372 193.704V194.928C618.204 195 618 195.054 617.76 195.09C617.532 195.138 617.304 195.162 617.076 195.162ZM624.091 195.162C622.675 195.162 621.559 194.754 620.743 193.938C619.927 193.11 619.519 191.964 619.519 190.5C619.519 189.552 619.699 188.73 620.059 188.034C620.419 187.326 620.923 186.78 621.571 186.396C622.219 186 622.963 185.802 623.803 185.802C624.631 185.802 625.327 185.976 625.891 186.324C626.455 186.672 626.887 187.17 627.187 187.818C627.487 188.454 627.637 189.21 627.637 190.086V190.626H620.635V189.708H626.683L626.377 189.942C626.377 188.982 626.161 188.232 625.729 187.692C625.297 187.152 624.655 186.882 623.803 186.882C622.903 186.882 622.201 187.2 621.697 187.836C621.193 188.46 620.941 189.306 620.941 190.374V190.536C620.941 191.664 621.217 192.522 621.769 193.11C622.333 193.686 623.119 193.974 624.127 193.974C624.667 193.974 625.171 193.896 625.639 193.74C626.119 193.572 626.575 193.302 627.007 192.93L627.511 193.956C627.115 194.34 626.611 194.64 625.999 194.856C625.399 195.06 624.763 195.162 624.091 195.162ZM629.868 195V181.752H631.326V195H629.868ZM637.595 195.162C636.791 195.162 636.089 194.976 635.489 194.604C634.889 194.22 634.421 193.68 634.085 192.984C633.761 192.288 633.599 191.454 633.599 190.482C633.599 189.498 633.761 188.658 634.085 187.962C634.421 187.266 634.889 186.732 635.489 186.36C636.089 185.988 636.791 185.802 637.595 185.802C638.411 185.802 639.113 186.012 639.701 186.432C640.301 186.84 640.697 187.398 640.889 188.106H640.673L640.871 185.964H642.275C642.239 186.312 642.203 186.666 642.167 187.026C642.143 187.374 642.131 187.716 642.131 188.052V195H640.673V192.876H640.871C640.679 193.584 640.283 194.142 639.683 194.55C639.083 194.958 638.387 195.162 637.595 195.162ZM637.883 193.974C638.747 193.974 639.431 193.68 639.935 193.092C640.439 192.492 640.691 191.622 640.691 190.482C640.691 189.33 640.439 188.46 639.935 187.872C639.431 187.272 638.747 186.972 637.883 186.972C637.031 186.972 636.347 187.272 635.831 187.872C635.327 188.46 635.075 189.33 635.075 190.482C635.075 191.622 635.327 192.492 635.831 193.092C636.347 193.68 637.031 193.974 637.883 193.974Z" fill="black"/>
<path d="M749.039 195.162C747.647 195.162 746.483 194.904 745.547 194.388C744.611 193.872 743.909 193.128 743.441 192.156C742.973 191.184 742.739 190.02 742.739 188.664C742.739 187.32 742.985 186.162 743.477 185.19C743.969 184.218 744.677 183.468 745.601 182.94C746.525 182.412 747.641 182.148 748.949 182.148C749.873 182.148 750.671 182.286 751.343 182.562C752.027 182.826 752.639 183.222 753.179 183.75L752.621 184.92C752.225 184.572 751.841 184.296 751.469 184.092C751.109 183.888 750.731 183.738 750.335 183.642C749.939 183.534 749.477 183.48 748.949 183.48C747.449 183.48 746.297 183.936 745.493 184.848C744.701 185.748 744.305 187.026 744.305 188.682C744.305 190.35 744.689 191.628 745.457 192.516C746.237 193.404 747.443 193.848 749.075 193.848C749.675 193.848 750.245 193.794 750.785 193.686C751.337 193.566 751.871 193.398 752.387 193.182L752.063 193.992V189.528H748.823V188.358H753.341V194.244C752.825 194.52 752.171 194.742 751.379 194.91C750.599 195.078 749.819 195.162 749.039 195.162ZM759.919 195.162C759.055 195.162 758.299 194.976 757.651 194.604C757.015 194.22 756.523 193.68 756.175 192.984C755.827 192.276 755.653 191.442 755.653 190.482C755.653 189.51 755.827 188.676 756.175 187.98C756.523 187.284 757.015 186.75 757.651 186.378C758.299 185.994 759.055 185.802 759.919 185.802C760.795 185.802 761.551 185.994 762.187 186.378C762.835 186.75 763.333 187.284 763.681 187.98C764.041 188.676 764.221 189.51 764.221 190.482C764.221 191.442 764.041 192.276 763.681 192.984C763.333 193.68 762.835 194.22 762.187 194.604C761.551 194.976 760.795 195.162 759.919 195.162ZM759.919 193.974C760.783 193.974 761.467 193.68 761.971 193.092C762.475 192.492 762.727 191.622 762.727 190.482C762.727 189.33 762.469 188.46 761.953 187.872C761.449 187.272 760.771 186.972 759.919 186.972C759.067 186.972 758.389 187.272 757.885 187.872C757.381 188.46 757.129 189.33 757.129 190.482C757.129 191.622 757.381 192.492 757.885 193.092C758.389 193.68 759.067 193.974 759.919 193.974ZM766.458 195V188.142C766.458 187.782 766.446 187.416 766.422 187.044C766.41 186.672 766.386 186.312 766.35 185.964H767.754L767.934 188.16L767.682 188.178C767.802 187.638 768.012 187.194 768.312 186.846C768.612 186.498 768.966 186.24 769.374 186.072C769.782 185.892 770.208 185.802 770.652 185.802C770.832 185.802 770.988 185.808 771.12 185.82C771.264 185.832 771.396 185.862 771.516 185.91L771.498 187.206C771.318 187.146 771.15 187.11 770.994 187.098C770.85 187.074 770.682 187.062 770.49 187.062C769.962 187.062 769.5 187.188 769.104 187.44C768.72 187.692 768.426 188.016 768.222 188.412C768.03 188.808 767.934 189.228 767.934 189.672V195H766.458ZM772.997 195V188.142C772.997 187.782 772.985 187.416 772.961 187.044C772.949 186.672 772.925 186.312 772.889 185.964H774.293L774.473 188.16L774.221 188.178C774.341 187.638 774.551 187.194 774.851 186.846C775.151 186.498 775.505 186.24 775.913 186.072C776.321 185.892 776.747 185.802 777.191 185.802C777.371 185.802 777.527 185.808 777.659 185.82C777.803 185.832 777.935 185.862 778.055 185.91L778.037 187.206C777.857 187.146 777.689 187.11 777.533 187.098C777.389 187.074 777.221 187.062 777.029 187.062C776.501 187.062 776.039 187.188 775.643 187.44C775.259 187.692 774.965 188.016 774.761 188.412C774.569 188.808 774.473 189.228 774.473 189.672V195H772.997ZM783.175 195.162C782.311 195.162 781.555 194.976 780.907 194.604C780.271 194.22 779.779 193.68 779.431 192.984C779.083 192.276 778.909 191.442 778.909 190.482C778.909 189.51 779.083 188.676 779.431 187.98C779.779 187.284 780.271 186.75 780.907 186.378C781.555 185.994 782.311 185.802 783.175 185.802C784.051 185.802 784.807 185.994 785.443 186.378C786.091 186.75 786.589 187.284 786.937 187.98C787.297 188.676 787.477 189.51 787.477 190.482C787.477 191.442 787.297 192.276 786.937 192.984C786.589 193.68 786.091 194.22 785.443 194.604C784.807 194.976 784.051 195.162 783.175 195.162ZM783.175 193.974C784.039 193.974 784.723 193.68 785.227 193.092C785.731 192.492 785.983 191.622 785.983 190.482C785.983 189.33 785.725 188.46 785.209 187.872C784.705 187.272 784.027 186.972 783.175 186.972C782.323 186.972 781.645 187.272 781.141 187.872C780.637 188.46 780.385 189.33 780.385 190.482C780.385 191.622 780.637 192.492 781.141 193.092C781.645 193.68 782.323 193.974 783.175 193.974ZM797.863 195.162C797.071 195.162 796.375 194.976 795.775 194.604C795.175 194.22 794.707 193.68 794.371 192.984C794.047 192.288 793.885 191.454 793.885 190.482C793.885 189.498 794.047 188.658 794.371 187.962C794.707 187.266 795.175 186.732 795.775 186.36C796.375 185.988 797.071 185.802 797.863 185.802C798.679 185.802 799.381 186.006 799.969 186.414C800.569 186.822 800.971 187.374 801.175 188.07H800.959V181.752H802.417V195H800.977V192.84H801.175C800.983 193.56 800.587 194.13 799.987 194.55C799.387 194.958 798.679 195.162 797.863 195.162ZM798.169 193.974C799.021 193.974 799.705 193.68 800.221 193.092C800.737 192.492 800.995 191.622 800.995 190.482C800.995 189.33 800.737 188.46 800.221 187.872C799.705 187.272 799.021 186.972 798.169 186.972C797.317 186.972 796.633 187.272 796.117 187.872C795.613 188.46 795.361 189.33 795.361 190.482C795.361 191.622 795.613 192.492 796.117 193.092C796.633 193.68 797.317 193.974 798.169 193.974ZM809.25 195.162C807.834 195.162 806.718 194.754 805.902 193.938C805.086 193.11 804.678 191.964 804.678 190.5C804.678 189.552 804.858 188.73 805.218 188.034C805.578 187.326 806.082 186.78 806.73 186.396C807.378 186 808.122 185.802 808.962 185.802C809.79 185.802 810.486 185.976 811.05 186.324C811.614 186.672 812.046 187.17 812.346 187.818C812.646 188.454 812.796 189.21 812.796 190.086V190.626H805.794V189.708H811.842L811.536 189.942C811.536 188.982 811.32 188.232 810.888 187.692C810.456 187.152 809.814 186.882 808.962 186.882C808.062 186.882 807.36 187.2 806.856 187.836C806.352 188.46 806.1 189.306 806.1 190.374V190.536C806.1 191.664 806.376 192.522 806.928 193.11C807.492 193.686 808.278 193.974 809.286 193.974C809.826 193.974 810.33 193.896 810.798 193.74C811.278 193.572 811.734 193.302 812.166 192.93L812.67 193.956C812.274 194.34 811.77 194.64 811.158 194.856C810.558 195.06 809.922 195.162 809.25 195.162ZM822.925 195.162C822.037 195.162 821.359 194.91 820.891 194.406C820.423 193.89 820.189 193.116 820.189 192.084V187.098H818.425V185.964H820.189V183.498L821.647 183.084V185.964H824.239V187.098H821.647V191.922C821.647 192.642 821.767 193.158 822.007 193.47C822.259 193.77 822.631 193.92 823.123 193.92C823.351 193.92 823.555 193.902 823.735 193.866C823.915 193.818 824.077 193.764 824.221 193.704V194.928C824.053 195 823.849 195.054 823.609 195.09C823.381 195.138 823.153 195.162 822.925 195.162ZM829.94 195.162C828.524 195.162 827.408 194.754 826.592 193.938C825.776 193.11 825.368 191.964 825.368 190.5C825.368 189.552 825.548 188.73 825.908 188.034C826.268 187.326 826.772 186.78 827.42 186.396C828.068 186 828.812 185.802 829.652 185.802C830.48 185.802 831.176 185.976 831.74 186.324C832.304 186.672 832.736 187.17 833.036 187.818C833.336 188.454 833.486 189.21 833.486 190.086V190.626H826.484V189.708H832.532L832.226 189.942C832.226 188.982 832.01 188.232 831.578 187.692C831.146 187.152 830.504 186.882 829.652 186.882C828.752 186.882 828.05 187.2 827.546 187.836C827.042 188.46 826.79 189.306 826.79 190.374V190.536C826.79 191.664 827.066 192.522 827.618 193.11C828.182 193.686 828.968 193.974 829.976 193.974C830.516 193.974 831.02 193.896 831.488 193.74C831.968 193.572 832.424 193.302 832.856 192.93L833.36 193.956C832.964 194.34 832.46 194.64 831.848 194.856C831.248 195.06 830.612 195.162 829.94 195.162ZM835.717 195V181.752H837.175V195H835.717ZM843.444 195.162C842.64 195.162 841.938 194.976 841.338 194.604C840.738 194.22 840.27 193.68 839.934 192.984C839.61 192.288 839.448 191.454 839.448 190.482C839.448 189.498 839.61 188.658 839.934 187.962C840.27 187.266 840.738 186.732 841.338 186.36C841.938 185.988 842.64 185.802 843.444 185.802C844.26 185.802 844.962 186.012 845.55 186.432C846.15 186.84 846.546 187.398 846.738 188.106H846.522L846.72 185.964H848.124C848.088 186.312 848.052 186.666 848.016 187.026C847.992 187.374 847.98 187.716 847.98 188.052V195H846.522V192.876H846.72C846.528 193.584 846.132 194.142 845.532 194.55C844.932 194.958 844.236 195.162 843.444 195.162ZM843.732 193.974C844.596 193.974 845.28 193.68 845.784 193.092C846.288 192.492 846.54 191.622 846.54 190.482C846.54 189.33 846.288 188.46 845.784 187.872C845.28 187.272 844.596 186.972 843.732 186.972C842.88 186.972 842.196 187.272 841.68 187.872C841.176 188.46 840.924 189.33 840.924 190.482C840.924 191.622 841.176 192.492 841.68 193.092C842.196 193.68 842.88 193.974 843.732 193.974Z" fill="black"/>
<path d="M965.983 195.162C964.711 195.162 963.631 194.898 962.743 194.37C961.855 193.842 961.171 193.092 960.691 192.12C960.223 191.148 959.989 189.99 959.989 188.646C959.989 187.302 960.223 186.15 960.691 185.19C961.171 184.218 961.855 183.468 962.743 182.94C963.631 182.412 964.711 182.148 965.983 182.148C966.883 182.148 967.687 182.286 968.395 182.562C969.103 182.838 969.721 183.24 970.249 183.768L969.691 184.956C969.115 184.452 968.545 184.086 967.981 183.858C967.417 183.618 966.757 183.498 966.001 183.498C964.549 183.498 963.445 183.948 962.689 184.848C961.933 185.748 961.555 187.014 961.555 188.646C961.555 190.278 961.933 191.55 962.689 192.462C963.445 193.362 964.549 193.812 966.001 193.812C966.757 193.812 967.417 193.698 967.981 193.47C968.545 193.23 969.115 192.852 969.691 192.336L970.249 193.542C969.721 194.058 969.103 194.46 968.395 194.748C967.687 195.024 966.883 195.162 965.983 195.162ZM975.592 195.162C974.524 195.162 973.714 194.868 973.162 194.28C972.622 193.692 972.352 192.792 972.352 191.58V185.964H973.81V191.544C973.81 192.372 973.978 192.984 974.314 193.38C974.65 193.764 975.172 193.956 975.88 193.956C976.672 193.956 977.308 193.698 977.788 193.182C978.268 192.666 978.508 191.976 978.508 191.112V185.964H979.966V195H978.544V192.966H978.778C978.526 193.662 978.118 194.202 977.554 194.586C977.002 194.97 976.348 195.162 975.592 195.162ZM987.331 195.162C986.515 195.162 985.813 194.958 985.225 194.55C984.637 194.13 984.241 193.56 984.037 192.84H984.235V195H982.795V181.752H984.253V188.07H984.037C984.241 187.374 984.637 186.822 985.225 186.414C985.813 186.006 986.515 185.802 987.331 185.802C988.147 185.802 988.849 185.994 989.437 186.378C990.037 186.75 990.499 187.284 990.823 187.98C991.159 188.676 991.327 189.51 991.327 190.482C991.327 191.454 991.159 192.288 990.823 192.984C990.487 193.68 990.019 194.22 989.419 194.604C988.831 194.976 988.135 195.162 987.331 195.162ZM987.025 193.974C987.877 193.974 988.561 193.68 989.077 193.092C989.593 192.504 989.851 191.634 989.851 190.482C989.851 189.33 989.593 188.46 989.077 187.872C988.561 187.272 987.877 186.972 987.025 186.972C986.173 186.972 985.489 187.272 984.973 187.872C984.469 188.46 984.217 189.33 984.217 190.482C984.217 191.622 984.469 192.492 984.973 193.092C985.489 193.68 986.173 193.974 987.025 193.974ZM993.552 195V188.142C993.552 187.782 993.54 187.416 993.516 187.044C993.504 186.672 993.48 186.312 993.444 185.964H994.848L995.028 188.16L994.776 188.178C994.896 187.638 995.106 187.194 995.406 186.846C995.706 186.498 996.06 186.24 996.468 186.072C996.876 185.892 997.302 185.802 997.746 185.802C997.926 185.802 998.082 185.808 998.214 185.82C998.358 185.832 998.49 185.862 998.61 185.91L998.592 187.206C998.412 187.146 998.244 187.11 998.088 187.098C997.944 187.074 997.776 187.062 997.584 187.062C997.056 187.062 996.594 187.188 996.198 187.44C995.814 187.692 995.52 188.016 995.316 188.412C995.124 188.808 995.028 189.228 995.028 189.672V195H993.552ZM1004.04 195.162C1002.62 195.162 1001.5 194.754 1000.69 193.938C999.872 193.11 999.464 191.964 999.464 190.5C999.464 189.552 999.644 188.73 1000 188.034C1000.36 187.326 1000.87 186.78 1001.52 186.396C1002.16 186 1002.91 185.802 1003.75 185.802C1004.58 185.802 1005.27 185.976 1005.84 186.324C1006.4 186.672 1006.83 187.17 1007.13 187.818C1007.43 188.454 1007.58 189.21 1007.58 190.086V190.626H1000.58V189.708H1006.63L1006.32 189.942C1006.32 188.982 1006.11 188.232 1005.67 187.692C1005.24 187.152 1004.6 186.882 1003.75 186.882C1002.85 186.882 1002.15 187.2 1001.64 187.836C1001.14 188.46 1000.89 189.306 1000.89 190.374V190.536C1000.89 191.664 1001.16 192.522 1001.71 193.11C1002.28 193.686 1003.06 193.974 1004.07 193.974C1004.61 193.974 1005.12 193.896 1005.58 193.74C1006.06 193.572 1006.52 193.302 1006.95 192.93L1007.46 193.956C1007.06 194.34 1006.56 194.64 1005.94 194.856C1005.34 195.06 1004.71 195.162 1004.04 195.162ZM1013.98 195V194.028L1020.07 186.72L1020.09 187.098H1013.98V185.964H1021.44V186.936L1015.28 194.28L1015.26 193.866H1021.63V195H1013.98ZM1027.19 195.162C1026.39 195.162 1025.68 194.976 1025.08 194.604C1024.48 194.22 1024.02 193.68 1023.68 192.984C1023.36 192.288 1023.19 191.454 1023.19 190.482C1023.19 189.498 1023.36 188.658 1023.68 187.962C1024.02 187.266 1024.48 186.732 1025.08 186.36C1025.68 185.988 1026.39 185.802 1027.19 185.802C1028.01 185.802 1028.71 186.012 1029.3 186.432C1029.9 186.84 1030.29 187.398 1030.48 188.106H1030.27L1030.47 185.964H1031.87C1031.83 186.312 1031.8 186.666 1031.76 187.026C1031.74 187.374 1031.73 187.716 1031.73 188.052V195H1030.27V192.876H1030.47C1030.27 193.584 1029.88 194.142 1029.28 194.55C1028.68 194.958 1027.98 195.162 1027.19 195.162ZM1027.48 193.974C1028.34 193.974 1029.03 193.68 1029.53 193.092C1030.03 192.492 1030.29 191.622 1030.29 190.482C1030.29 189.33 1030.03 188.46 1029.53 187.872C1029.03 187.272 1028.34 186.972 1027.48 186.972C1026.63 186.972 1025.94 187.272 1025.43 187.872C1024.92 188.46 1024.67 189.33 1024.67 190.482C1024.67 191.622 1024.92 192.492 1025.43 193.092C1025.94 193.68 1026.63 193.974 1027.48 193.974ZM1034.55 198.888V188.052C1034.55 187.716 1034.53 187.374 1034.49 187.026C1034.47 186.666 1034.44 186.312 1034.4 185.964H1035.81L1036 188.106H1035.79C1035.98 187.398 1036.37 186.84 1036.96 186.432C1037.55 186.012 1038.25 185.802 1039.06 185.802C1039.88 185.802 1040.58 185.988 1041.17 186.36C1041.77 186.732 1042.24 187.266 1042.57 187.962C1042.91 188.658 1043.08 189.498 1043.08 190.482C1043.08 191.454 1042.91 192.288 1042.57 192.984C1042.25 193.68 1041.79 194.22 1041.19 194.604C1040.59 194.976 1039.88 195.162 1039.06 195.162C1038.26 195.162 1037.56 194.958 1036.98 194.55C1036.39 194.142 1036 193.584 1035.81 192.876H1036V198.888H1034.55ZM1038.78 193.974C1039.64 193.974 1040.32 193.68 1040.83 193.092C1041.34 192.492 1041.6 191.622 1041.6 190.482C1041.6 189.33 1041.34 188.46 1040.83 187.872C1040.32 187.272 1039.64 186.972 1038.78 186.972C1037.92 186.972 1037.24 187.272 1036.72 187.872C1036.22 188.46 1035.97 189.33 1035.97 190.482C1035.97 191.622 1036.22 192.492 1036.72 193.092C1037.24 193.68 1037.92 193.974 1038.78 193.974ZM1048.78 195.162C1047.97 195.162 1047.27 194.976 1046.67 194.604C1046.07 194.22 1045.6 193.68 1045.27 192.984C1044.94 192.288 1044.78 191.454 1044.78 190.482C1044.78 189.498 1044.94 188.658 1045.27 187.962C1045.6 187.266 1046.07 186.732 1046.67 186.36C1047.27 185.988 1047.97 185.802 1048.78 185.802C1049.59 185.802 1050.29 186.012 1050.88 186.432C1051.48 186.84 1051.88 187.398 1052.07 188.106H1051.85L1052.05 185.964H1053.46C1053.42 186.312 1053.38 186.666 1053.35 187.026C1053.32 187.374 1053.31 187.716 1053.31 188.052V195H1051.85V192.876H1052.05C1051.86 193.584 1051.46 194.142 1050.86 194.55C1050.26 194.958 1049.57 195.162 1048.78 195.162ZM1049.06 193.974C1049.93 193.974 1050.61 193.68 1051.12 193.092C1051.62 192.492 1051.87 191.622 1051.87 190.482C1051.87 189.33 1051.62 188.46 1051.12 187.872C1050.61 187.272 1049.93 186.972 1049.06 186.972C1048.21 186.972 1047.53 187.272 1047.01 187.872C1046.51 188.46 1046.26 189.33 1046.26 190.482C1046.26 191.622 1046.51 192.492 1047.01 193.092C1047.53 193.68 1048.21 193.974 1049.06 193.974ZM1059.33 195.162C1058.45 195.162 1057.77 194.91 1057.3 194.406C1056.83 193.89 1056.6 193.116 1056.6 192.084V187.098H1054.83V185.964H1056.6V183.498L1058.06 183.084V185.964H1060.65V187.098H1058.06V191.922C1058.06 192.642 1058.18 193.158 1058.42 193.47C1058.67 193.77 1059.04 193.92 1059.53 193.92C1059.76 193.92 1059.96 193.902 1060.14 193.866C1060.32 193.818 1060.49 193.764 1060.63 193.704V194.928C1060.46 195 1060.26 195.054 1060.02 195.09C1059.79 195.138 1059.56 195.162 1059.33 195.162ZM1066.04 195.162C1065.18 195.162 1064.42 194.976 1063.78 194.604C1063.14 194.22 1062.65 193.68 1062.3 192.984C1061.95 192.276 1061.78 191.442 1061.78 190.482C1061.78 189.51 1061.95 188.676 1062.3 187.98C1062.65 187.284 1063.14 186.75 1063.78 186.378C1064.42 185.994 1065.18 185.802 1066.04 185.802C1066.92 185.802 1067.68 185.994 1068.31 186.378C1068.96 186.75 1069.46 187.284 1069.81 187.98C1070.17 188.676 1070.35 189.51 1070.35 190.482C1070.35 191.442 1070.17 192.276 1069.81 192.984C1069.46 193.68 1068.96 194.22 1068.31 194.604C1067.68 194.976 1066.92 195.162 1066.04 195.162ZM1066.04 193.974C1066.91 193.974 1067.59 193.68 1068.1 193.092C1068.6 192.492 1068.85 191.622 1068.85 190.482C1068.85 189.33 1068.59 188.46 1068.08 187.872C1067.57 187.272 1066.9 186.972 1066.04 186.972C1065.19 186.972 1064.51 187.272 1064.01 187.872C1063.51 188.46 1063.25 189.33 1063.25 190.482C1063.25 191.622 1063.51 192.492 1064.01 193.092C1064.51 193.68 1065.19 193.974 1066.04 193.974ZM1075.63 195.162C1074.91 195.162 1074.23 195.066 1073.61 194.874C1072.99 194.67 1072.47 194.388 1072.06 194.028L1072.57 193.002C1073.01 193.35 1073.49 193.608 1074.01 193.776C1074.53 193.944 1075.08 194.028 1075.64 194.028C1076.36 194.028 1076.9 193.902 1077.26 193.65C1077.64 193.386 1077.82 193.026 1077.82 192.57C1077.82 192.222 1077.7 191.946 1077.46 191.742C1077.23 191.526 1076.86 191.358 1076.33 191.238L1074.65 190.896C1073.89 190.728 1073.31 190.446 1072.93 190.05C1072.54 189.642 1072.35 189.126 1072.35 188.502C1072.35 187.974 1072.49 187.512 1072.76 187.116C1073.04 186.708 1073.44 186.39 1073.97 186.162C1074.5 185.922 1075.12 185.802 1075.82 185.802C1076.48 185.802 1077.09 185.904 1077.64 186.108C1078.21 186.3 1078.67 186.582 1079.05 186.954L1078.52 187.962C1078.16 187.614 1077.75 187.356 1077.28 187.188C1076.83 187.008 1076.35 186.918 1075.86 186.918C1075.15 186.918 1074.62 187.062 1074.26 187.35C1073.91 187.626 1073.74 187.992 1073.74 188.448C1073.74 188.796 1073.84 189.084 1074.06 189.312C1074.29 189.528 1074.64 189.69 1075.1 189.798L1076.78 190.14C1077.59 190.32 1078.2 190.602 1078.6 190.986C1079 191.358 1079.21 191.862 1079.21 192.498C1079.21 193.038 1079.06 193.512 1078.76 193.92C1078.46 194.316 1078.04 194.622 1077.5 194.838C1076.97 195.054 1076.35 195.162 1075.63 195.162Z" fill="black"/>
<path d="M1214.99 195L1220.59 182.31H1221.89L1227.57 195H1226.03L1224.44 191.382L1225.11 191.76H1217.35L1218.07 191.382L1216.52 195H1214.99ZM1221.22 184.02L1218.3 190.86L1217.87 190.536H1224.57L1224.24 190.86L1221.26 184.02H1221.22ZM1229.33 195V181.752H1230.78V195H1229.33ZM1237.41 195.162C1236.53 195.162 1235.75 194.97 1235.09 194.586C1234.44 194.202 1233.94 193.656 1233.58 192.948C1233.23 192.24 1233.06 191.4 1233.06 190.428C1233.06 189.444 1233.24 188.61 1233.6 187.926C1233.96 187.23 1234.46 186.702 1235.11 186.342C1235.77 185.982 1236.54 185.802 1237.41 185.802C1237.99 185.802 1238.55 185.904 1239.09 186.108C1239.64 186.312 1240.1 186.6 1240.46 186.972L1239.93 188.016C1239.57 187.668 1239.18 187.41 1238.75 187.242C1238.33 187.074 1237.91 186.99 1237.5 186.99C1236.57 186.99 1235.84 187.284 1235.33 187.872C1234.81 188.46 1234.55 189.318 1234.55 190.446C1234.55 191.562 1234.81 192.426 1235.33 193.038C1235.84 193.65 1236.57 193.956 1237.5 193.956C1237.9 193.956 1238.31 193.878 1238.73 193.722C1239.16 193.566 1239.56 193.308 1239.93 192.948L1240.46 193.974C1240.08 194.358 1239.62 194.652 1239.07 194.856C1238.52 195.06 1237.97 195.162 1237.41 195.162ZM1246.06 195.162C1245.2 195.162 1244.44 194.976 1243.79 194.604C1243.16 194.22 1242.66 193.68 1242.32 192.984C1241.97 192.276 1241.79 191.442 1241.79 190.482C1241.79 189.51 1241.97 188.676 1242.32 187.98C1242.66 187.284 1243.16 186.75 1243.79 186.378C1244.44 185.994 1245.2 185.802 1246.06 185.802C1246.94 185.802 1247.69 185.994 1248.33 186.378C1248.98 186.75 1249.47 187.284 1249.82 187.98C1250.18 188.676 1250.36 189.51 1250.36 190.482C1250.36 191.442 1250.18 192.276 1249.82 192.984C1249.47 193.68 1248.98 194.22 1248.33 194.604C1247.69 194.976 1246.94 195.162 1246.06 195.162ZM1246.06 193.974C1246.92 193.974 1247.61 193.68 1248.11 193.092C1248.62 192.492 1248.87 191.622 1248.87 190.482C1248.87 189.33 1248.61 188.46 1248.09 187.872C1247.59 187.272 1246.91 186.972 1246.06 186.972C1245.21 186.972 1244.53 187.272 1244.03 187.872C1243.52 188.46 1243.27 189.33 1243.27 190.482C1243.27 191.622 1243.52 192.492 1244.03 193.092C1244.53 193.68 1245.21 193.974 1246.06 193.974ZM1252.63 195V181.752H1254.09V187.962H1253.86C1254.11 187.254 1254.53 186.72 1255.12 186.36C1255.72 185.988 1256.41 185.802 1257.19 185.802C1258.27 185.802 1259.07 186.096 1259.6 186.684C1260.13 187.26 1260.39 188.136 1260.39 189.312V195H1258.93V189.402C1258.93 188.562 1258.77 187.95 1258.43 187.566C1258.11 187.182 1257.58 186.99 1256.85 186.99C1256.01 186.99 1255.33 187.248 1254.83 187.764C1254.34 188.28 1254.09 188.958 1254.09 189.798V195H1252.63ZM1266.89 195.162C1266.03 195.162 1265.27 194.976 1264.62 194.604C1263.99 194.22 1263.49 193.68 1263.15 192.984C1262.8 192.276 1262.62 191.442 1262.62 190.482C1262.62 189.51 1262.8 188.676 1263.15 187.98C1263.49 187.284 1263.99 186.75 1264.62 186.378C1265.27 185.994 1266.03 185.802 1266.89 185.802C1267.77 185.802 1268.52 185.994 1269.16 186.378C1269.81 186.75 1270.3 187.284 1270.65 187.98C1271.01 188.676 1271.19 189.51 1271.19 190.482C1271.19 191.442 1271.01 192.276 1270.65 192.984C1270.3 193.68 1269.81 194.22 1269.16 194.604C1268.52 194.976 1267.77 195.162 1266.89 195.162ZM1266.89 193.974C1267.75 193.974 1268.44 193.68 1268.94 193.092C1269.45 192.492 1269.7 191.622 1269.7 190.482C1269.7 189.33 1269.44 188.46 1268.92 187.872C1268.42 187.272 1267.74 186.972 1266.89 186.972C1266.04 186.972 1265.36 187.272 1264.86 187.872C1264.35 188.46 1264.1 189.33 1264.1 190.482C1264.1 191.622 1264.35 192.492 1264.86 193.092C1265.36 193.68 1266.04 193.974 1266.89 193.974ZM1273.46 195V181.752H1274.92V195H1273.46Z" fill="black"/>
<g clip-path="url(#clip2_2269_1323)">
<path d="M746.108 123.407H843.553C843.553 123.407 839.246 76.2188 794.83 75.0265C750.415 73.8343 746.108 123.407 746.108 123.407Z" fill="#64449F"/>
<path d="M746.108 123.407L739 137.184C739 137.184 749.437 144.841 757.311 142.801C765.184 140.761 767.88 137.502 775.806 138.456C783.733 139.41 787.458 144.126 793.615 144.841C793.615 144.841 798.186 146.166 804.739 141.529C811.291 136.893 814.541 138.005 814.541 138.005C814.541 138.005 815.889 137.82 825.797 142.271C835.706 146.722 840.567 142.271 840.567 142.271L849.921 136.548L843.474 123.301L746.108 123.407Z" fill="#64449F"/>
</g>
<g clip-path="url(#clip3_2269_1323)">
<path d="M1039.82 100.167L1033.29 131.156L1013.2 129.204L1009.46 96.6737C1009.46 96.6737 1007.41 66.6097 1024.67 67.0001C1040.9 67.37 1040.2 96.5504 1039.9 99.6534C1039.88 99.8383 1039.86 99.9205 1039.82 100.167Z" fill="#64449F"/>
<path d="M1012.81 131.156L1033.03 132.82L1032.23 142.561C1032 145.367 1030.67 147.967 1028.54 149.789C1026.4 151.612 1023.64 152.508 1020.84 152.281C1018.27 152.066 1015.89 150.835 1014.23 148.859C1012.56 146.882 1011.74 144.322 1011.95 141.739L1012.81 131.156Z" fill="#64449F"/>
<path d="M972.164 100.845L978.686 131.834L998.803 129.882L1002.54 97.3517C1002.54 97.3517 1004.59 67.2876 987.334 67.6781C971.1 68.048 971.775 97.2284 972.102 100.331C972.123 100.455 972.143 100.599 972.164 100.845Z" fill="#64449F"/>
<path d="M999.171 131.834L978.972 133.498L979.769 143.239C979.998 146.045 981.326 148.645 983.462 150.468C985.597 152.29 988.365 153.186 991.157 152.959C993.726 152.744 996.106 151.514 997.773 149.537C999.441 147.561 1000.26 145 1000.05 142.417L999.171 131.834Z" fill="#64449F"/>
</g>
<defs>
<clipPath id="clip0_2269_1323">
<rect width="44" height="96" fill="white" transform="translate(1228 55)"/>
</clipPath>
<clipPath id="clip1_2269_1323">
<rect width="126" height="47" fill="white" transform="translate(510 93)"/>
</clipPath>
<clipPath id="clip2_2269_1323">
<rect width="111" height="70" fill="white" transform="translate(739 75)"/>
</clipPath>
<clipPath id="clip3_2269_1323">
<rect width="68" height="86" fill="white" transform="translate(972 67)"/>
</clipPath>
</defs>
</svg>
