<svg width="28" height="28" viewBox="0 0 28 28" fill="none" xmlns="http://www.w3.org/2000/svg">
<path d="M14.26 7.77003C12.9759 7.76805 11.7202 8.147 10.6516 8.85892C9.58298 9.57085 8.74966 10.5837 8.25691 11.7694C7.76417 12.9552 7.63421 14.2604 7.8835 15.52C8.13279 16.7796 8.75006 17.9369 9.6573 18.8456C10.5645 19.7542 11.721 20.3734 12.9802 20.6246C14.2394 20.8758 15.5448 20.7479 16.7313 20.257C17.9178 19.766 18.9319 18.9342 19.6455 17.8667C20.359 16.7992 20.7399 15.544 20.7399 14.26C20.7373 12.5413 20.0541 10.8936 18.8397 9.67735C17.6253 8.46109 15.9787 7.77531 14.26 7.77003ZM14.26 18.41C13.4363 18.412 12.6307 18.1694 11.945 17.7131C11.2594 17.2567 10.7246 16.6071 10.4085 15.8466C10.0924 15.086 10.0092 14.2488 10.1694 13.4409C10.3296 12.633 10.726 11.8908 11.3084 11.3084C11.8908 10.7261 12.633 10.3297 13.4409 10.1695C14.2488 10.0093 15.086 10.0925 15.8465 10.4086C16.6071 10.7247 17.2567 11.2594 17.7131 11.9451C18.1694 12.6307 18.412 13.4364 18.41 14.26C18.4073 15.3599 17.9693 16.4139 17.1916 17.1916C16.4139 17.9693 15.3598 18.4074 14.26 18.41Z" fill="#7D55C7" stroke="#7D55C7" stroke-width="0.98" stroke-miterlimit="10"/>
<path d="M18.35 3H10.17C6.21012 3 3 6.21012 3 10.17V18.35C3 22.3099 6.21012 25.52 10.17 25.52H18.35C22.3099 25.52 25.52 22.3099 25.52 18.35V10.17C25.52 6.21012 22.3099 3 18.35 3Z" stroke="#7D55C7" stroke-width="4.88" stroke-miterlimit="10"/>
</svg>
