<svg width="447" height="40" viewBox="0 0 447 40" fill="none" xmlns="http://www.w3.org/2000/svg">
<line x1="39" y1="18.5" x2="137" y2="18.5" stroke="#7D55C7" stroke-width="3"/>
<line x1="175" y1="18.5" x2="273" y2="18.5" stroke="#7D55C7" stroke-width="3"/>
<line x1="311" y1="18.5" x2="409" y2="18.5" stroke="#7D55C7" stroke-width="3"/>
<circle cx="20" cy="20" r="18.5" stroke="#7D55C7" stroke-width="3"/>
<path d="M24.5698 24.52V26H15.9098V24.52H19.5098V15.36C18.4698 15.9867 17.7498 16.4 17.3498 16.6C16.9632 16.7867 16.6365 16.88 16.3698 16.88C15.6498 16.88 15.2898 16.44 15.2898 15.56C16.7565 14.9867 18.7298 13.96 21.2098 12.48L21.8498 12.8V24.52H24.5698Z" fill="#7D55C7"/>
<circle cx="156" cy="20" r="18.5" stroke="#7D55C7" stroke-width="3"/>
<path d="M155.93 12.4C157.383 12.4 158.523 12.7267 159.35 13.38C160.19 14.0333 160.61 14.9867 160.61 16.24C160.61 16.9733 160.45 17.6733 160.13 18.34C159.823 19.0067 159.297 19.74 158.55 20.54C157.817 21.34 156.763 22.3133 155.39 23.46C155.15 23.66 154.91 23.88 154.67 24.12L160.89 24.1L160.75 26H151.79L151.65 24.54C153.023 23.4733 154.43 22.18 155.87 20.66C156.59 19.8333 157.137 19.0867 157.51 18.42C157.897 17.7533 158.09 17.0333 158.09 16.26C158.09 15.62 157.87 15.1267 157.43 14.78C156.99 14.42 156.423 14.24 155.73 14.24C154.223 14.24 153.163 15.1 152.55 16.82C152.283 16.7 152.097 16.52 151.99 16.28C151.883 16.04 151.81 15.6933 151.77 15.24C151.837 14.64 152.077 14.1267 152.49 13.7C152.903 13.2733 153.417 12.9533 154.03 12.74C154.643 12.5133 155.277 12.4 155.93 12.4Z" fill="#7D55C7"/>
<circle cx="292" cy="20" r="18.5" stroke="#7D55C7" stroke-width="3"/>
<path d="M291.77 12.42C293.143 12.42 294.237 12.6867 295.05 13.22C295.877 13.7533 296.29 14.56 296.29 15.64C296.29 16.3733 296.083 17.0333 295.67 17.62C295.27 18.2067 294.723 18.66 294.03 18.98C294.923 19.1533 295.637 19.52 296.17 20.08C296.717 20.64 296.99 21.3467 296.99 22.2C296.99 23.0533 296.763 23.8 296.31 24.44C295.857 25.08 295.223 25.5733 294.41 25.92C293.597 26.2667 292.657 26.44 291.59 26.44C290.497 26.44 289.57 26.2267 288.81 25.8C288.05 25.36 287.67 24.6933 287.67 23.8C287.67 23.2667 287.837 22.92 288.17 22.76C288.77 23.9867 289.897 24.6 291.55 24.6C292.497 24.6 293.217 24.4 293.71 24C294.217 23.6 294.47 23 294.47 22.2C294.47 21.4133 294.21 20.8333 293.69 20.46C293.17 20.0867 292.457 19.9 291.55 19.9C291.203 19.9 290.87 19.92 290.55 19.96V18.7C291.537 18.6733 292.343 18.4467 292.97 18.02C293.597 17.5933 293.91 16.96 293.91 16.12C293.91 15.5067 293.683 15.0467 293.23 14.74C292.79 14.42 292.163 14.26 291.35 14.26C290.67 14.26 290.097 14.4267 289.63 14.76C289.163 15.0933 288.83 15.5867 288.63 16.24C288.35 16.1467 288.15 16.0067 288.03 15.82C287.91 15.62 287.85 15.3667 287.85 15.06C287.85 14.4867 288.043 14 288.43 13.6C288.817 13.2 289.31 12.9067 289.91 12.72C290.51 12.52 291.13 12.42 291.77 12.42Z" fill="#7D55C7"/>
<circle cx="427" cy="20" r="20" fill="#7D55C7"/>
<path d="M429.81 21.64H431.59L431.45 23.12H429.81V26H427.47V23.12H422.03C421.803 23.12 421.623 23.0467 421.49 22.9C421.357 22.74 421.29 22.5333 421.29 22.28C421.29 21.9867 421.437 21.6133 421.73 21.16L427.47 12.8H429.81V21.64ZM427.47 15.6L423.31 21.64H427.47V15.6Z" fill="white"/>
</svg>
