<svg width="99" height="16" viewBox="0 0 99 16" fill="none" xmlns="http://www.w3.org/2000/svg">
<path d="M7.71628 0.478307C7.80849 0.332773 7.94059 0.212019 8.09938 0.128093C8.25818 0.0441662 8.43813 0 8.62128 0C8.80443 0 8.98438 0.0441662 9.14318 0.128093C9.30198 0.212019 9.43407 0.332773 9.52629 0.478307L11.8684 4.176L16.4169 5.08231C16.5958 5.11806 16.7614 5.19633 16.8972 5.30929C17.033 5.42226 17.1342 5.56599 17.1907 5.72614C17.2473 5.8863 17.2572 6.05729 17.2195 6.22207C17.1818 6.38685 17.0978 6.53966 16.9758 6.66527L13.8753 9.85662L14.3446 14.1146C14.3631 14.2823 14.3335 14.4515 14.2587 14.6053C14.1838 14.7591 14.0664 14.8922 13.9182 14.9913C13.7699 15.0903 13.596 15.1519 13.4138 15.1698C13.2316 15.1877 13.0475 15.1614 12.8798 15.0933L8.62128 13.367L4.36273 15.0933C4.19507 15.1614 4.01094 15.1877 3.82874 15.1698C3.64653 15.1519 3.47262 15.0903 3.32438 14.9913C3.17613 14.8922 3.05873 14.7591 2.98391 14.6053C2.90908 14.4515 2.87945 14.2823 2.89796 14.1146L3.36722 9.85662L0.266738 6.66604C0.144585 6.54044 0.0603929 6.38757 0.0225656 6.22269C-0.0152617 6.0578 -0.00540026 5.88668 0.0511654 5.7264C0.107731 5.56612 0.209022 5.42229 0.344926 5.30927C0.480829 5.19625 0.646591 5.11799 0.825663 5.08231L5.37416 4.176L7.71628 0.478307Z" fill="#7D55C7"/>
<path d="M28.0009 0.478307C28.0932 0.332773 28.2253 0.212019 28.3841 0.128093C28.5428 0.0441662 28.7228 0 28.906 0C29.0891 0 29.2691 0.0441662 29.4278 0.128093C29.5866 0.212019 29.7187 0.332773 29.811 0.478307L32.1531 4.176L36.7016 5.08231C36.8805 5.11806 37.0461 5.19633 37.1819 5.30929C37.3176 5.42226 37.4188 5.56599 37.4754 5.72614C37.5319 5.8863 37.5419 6.05729 37.5042 6.22207C37.4664 6.38685 37.3824 6.53966 37.2605 6.66527L34.16 9.85662L34.6293 14.1146C34.6478 14.2823 34.6181 14.4515 34.5433 14.6053C34.4685 14.7591 34.3511 14.8922 34.2029 14.9913C34.0546 15.0903 33.8807 15.1519 33.6985 15.1698C33.5163 15.1877 33.3322 15.1614 33.1645 15.0933L28.906 13.367L24.6474 15.0933C24.4797 15.1614 24.2956 15.1877 24.1134 15.1698C23.9312 15.1519 23.7573 15.0903 23.609 14.9913C23.4608 14.8922 23.3434 14.7591 23.2686 14.6053C23.1938 14.4515 23.1641 14.2823 23.1826 14.1146L23.6519 9.85662L20.5514 6.66604C20.4293 6.54044 20.3451 6.38757 20.3072 6.22269C20.2694 6.0578 20.2793 5.88668 20.3358 5.7264C20.3924 5.56612 20.4937 5.42229 20.6296 5.30927C20.7655 5.19625 20.9313 5.11799 21.1103 5.08231L25.6588 4.176L28.0009 0.478307Z" fill="#7D55C7"/>
<path d="M48.2855 0.478307C48.3777 0.332773 48.5098 0.212019 48.6686 0.128093C48.8274 0.0441662 49.0073 0 49.1905 0C49.3736 0 49.5536 0.0441662 49.7124 0.128093C49.8712 0.212019 50.0033 0.332773 50.0955 0.478307L52.4376 4.176L56.9861 5.08231C57.165 5.11806 57.3306 5.19633 57.4664 5.30929C57.6022 5.42226 57.7034 5.56599 57.7599 5.72614C57.8165 5.8863 57.8264 6.05729 57.7887 6.22207C57.751 6.38685 57.667 6.53966 57.545 6.66527L54.4446 9.85662L54.9138 14.1146C54.9323 14.2823 54.9027 14.4515 54.8279 14.6053C54.753 14.7591 54.6356 14.8922 54.4874 14.9913C54.3392 15.0903 54.1652 15.1519 53.983 15.1698C53.8008 15.1877 53.6167 15.1614 53.4491 15.0933L49.1905 13.367L44.9319 15.0933C44.7643 15.1614 44.5802 15.1877 44.3979 15.1698C44.2157 15.1519 44.0418 15.0903 43.8936 14.9913C43.7453 14.8922 43.6279 14.7591 43.5531 14.6053C43.4783 14.4515 43.4487 14.2823 43.4672 14.1146L43.9364 9.85662L40.836 6.66604C40.7138 6.54044 40.6296 6.38757 40.5918 6.22269C40.554 6.0578 40.5638 5.88668 40.6204 5.7264C40.6769 5.56612 40.7782 5.42229 40.9141 5.30927C41.05 5.19625 41.2158 5.11799 41.3949 5.08231L45.9434 4.176L48.2855 0.478307Z" fill="#7D55C7"/>
<path d="M68.57 0.478307C68.6623 0.332773 68.7943 0.212019 68.9531 0.128093C69.1119 0.0441662 69.2919 0 69.475 0C69.6582 0 69.8381 0.0441662 69.9969 0.128093C70.1557 0.212019 70.2878 0.332773 70.38 0.478307L72.7222 4.176L77.2707 5.08231C77.4496 5.11806 77.6152 5.19633 77.751 5.30929C77.8867 5.42226 77.9879 5.56599 78.0445 5.72614C78.101 5.8863 78.111 6.05729 78.0732 6.22207C78.0355 6.38685 77.9515 6.53966 77.8296 6.66527L74.7291 9.85662L75.1984 14.1146C75.2169 14.2823 75.1872 14.4515 75.1124 14.6053C75.0376 14.7591 74.9202 14.8922 74.7719 14.9913C74.6237 15.0903 74.4498 15.1519 74.2676 15.1698C74.0854 15.1877 73.9013 15.1614 73.7336 15.0933L69.475 13.367L65.2165 15.0933C65.0488 15.1614 64.8647 15.1877 64.6825 15.1698C64.5003 15.1519 64.3264 15.0903 64.1781 14.9913C64.0299 14.8922 63.9125 14.7591 63.8377 14.6053C63.7628 14.4515 63.7332 14.2823 63.7517 14.1146L64.221 9.85662L61.1205 6.66604C60.9983 6.54044 60.9142 6.38757 60.8763 6.22269C60.8385 6.0578 60.8484 5.88668 60.9049 5.7264C60.9615 5.56612 61.0628 5.42229 61.1987 5.30927C61.3346 5.19625 61.5004 5.11799 61.6794 5.08231L66.2279 4.176L68.57 0.478307Z" fill="#7D55C7"/>
<path d="M92.5844 4.44354L92.6991 4.6245L92.9091 4.66636L97.4573 5.57261C97.4573 5.57261 97.4574 5.57261 97.4574 5.57262C97.5575 5.59263 97.6462 5.63571 97.7158 5.69365C97.7852 5.75139 97.8324 5.82091 97.8577 5.89262C97.8829 5.96394 97.887 6.03854 97.8705 6.11054C97.854 6.18279 97.8161 6.25448 97.7556 6.31686C97.7556 6.3169 97.7555 6.31695 97.7555 6.31699L94.6551 9.50821L94.491 9.6772L94.5168 9.9114L94.986 14.1694L94.9861 14.1695C94.9941 14.2419 94.9816 14.3164 94.9475 14.3866C94.9131 14.4572 94.8566 14.5236 94.7788 14.5755C94.7009 14.6276 94.606 14.6621 94.5033 14.6722C94.4007 14.6823 94.2979 14.6672 94.2062 14.63L94.2061 14.63L89.9475 12.9037L89.7597 12.8275L89.5719 12.9037L85.3133 14.63L85.3132 14.63C85.2215 14.6672 85.1187 14.6823 85.0161 14.6722C84.9135 14.6621 84.8186 14.6276 84.7406 14.5755C84.6628 14.5236 84.6063 14.4572 84.572 14.3866C84.5378 14.3164 84.5254 14.2419 84.5334 14.1695L84.5334 14.1694L85.0026 9.9114L85.0285 9.67717L84.8642 9.50817L81.7637 6.31758L81.7636 6.31744C81.7029 6.25502 81.6649 6.18323 81.6483 6.11088C81.6318 6.03883 81.6359 5.96417 81.6611 5.8928C81.6864 5.82104 81.7336 5.75147 81.8031 5.6937C81.8728 5.63572 81.9616 5.59263 82.0618 5.57267L86.6103 4.66636L86.8204 4.6245L86.935 4.44354L89.2771 0.745922C89.2771 0.745899 89.2771 0.745876 89.2771 0.745853C89.3207 0.677134 89.3863 0.615153 89.4714 0.570151C89.5568 0.525049 89.6563 0.5 89.7597 0.5C89.8631 0.5 89.9626 0.525049 90.048 0.570151C90.1331 0.615153 90.1988 0.677134 90.2423 0.745853C90.2423 0.745876 90.2423 0.745899 90.2424 0.745922L92.5844 4.44354Z" stroke="#7D55C7"/>
</svg>
