<svg width="140" height="28" viewBox="0 0 140 28" fill="none" xmlns="http://www.w3.org/2000/svg">
<path d="M4.51962 25H1.1187C0.822698 25 0.538824 24.8854 0.329518 24.6815C0.120211 24.4776 0.00261974 24.2011 0.00261974 23.9127V7.04167C-0.0224347 6.22898 0.132467 5.42057 0.456777 4.67142C0.781088 3.92227 1.2672 3.24995 1.88207 2.70018C3.13679 1.56673 4.8039 1 6.88339 1H8.87603C9.02282 1 9.16816 1.02821 9.30374 1.08302C9.43932 1.13782 9.56247 1.21814 9.66615 1.31937C9.76982 1.42061 9.85198 1.54076 9.90791 1.67298C9.96384 1.80519 9.99246 1.94686 9.99211 2.08986V4.91067C9.99246 5.05367 9.96384 5.19534 9.90791 5.32756C9.85198 5.45977 9.76982 5.57992 9.66615 5.68116C9.56247 5.7824 9.43932 5.86271 9.30374 5.91752C9.16816 5.97232 9.02282 6.00053 8.87603 6.00053H7.3809C6.71756 6.00053 6.25954 6.17748 6.00684 6.53649C5.90219 6.70021 5.84459 6.88828 5.84004 7.0811C5.8355 7.27391 5.8842 7.46438 5.98102 7.6326C6.07785 7.80082 6.21927 7.94063 6.3905 8.03741C6.56174 8.1342 6.75651 8.18441 6.95447 8.18282H8.88392C9.17992 8.18282 9.46381 8.29738 9.67312 8.50128C9.88243 8.70519 10 8.98174 10 9.27011V12.0909C10 12.3793 9.88243 12.6558 9.67312 12.8598C9.46381 13.0637 9.17992 13.1782 8.88392 13.1782H6.75442C6.45771 13.1782 6.17315 13.293 5.96335 13.4974C5.75355 13.7018 5.6357 13.979 5.6357 14.2681V23.8896C5.63885 24.0343 5.61231 24.1782 5.55763 24.3128C5.50296 24.4474 5.42125 24.57 5.3173 24.6734C5.21335 24.7768 5.08924 24.859 4.95226 24.9151C4.81528 24.9712 4.6682 25 4.51962 25Z" fill="#7D55C7"/>
<path d="M41.6812 5.59319H43.5617C43.9243 5.59319 44.272 5.73297 44.5287 5.98186C44.7853 6.23074 44.9298 6.5684 44.9304 6.9207V10.044C44.9298 10.3963 44.7853 10.7339 44.5287 10.9828C44.272 11.2317 43.9243 11.3715 43.5617 11.3715H41.6414C41.2788 11.3721 40.9313 11.5125 40.6752 11.7618C40.419 12.0112 40.2751 12.3491 40.2751 12.7014V16.5319C40.2751 17.6035 40.5037 18.3091 40.9608 18.6486C41.4179 18.9882 42.303 19.178 43.6163 19.2183C43.7971 19.217 43.9764 19.2504 44.1439 19.3166C44.3114 19.3828 44.4638 19.4805 44.5924 19.6041C44.7209 19.7276 44.8231 19.8746 44.893 20.0366C44.963 20.1987 44.9994 20.3725 45 20.5482V23.669C45 24.0218 44.8558 24.36 44.5991 24.6094C44.3424 24.8588 43.9942 24.999 43.6312 24.999H41.3185C40.215 25.0159 39.1184 24.8258 38.0891 24.439C37.2104 24.1118 36.4233 23.5884 35.7912 22.9111C35.21 22.2704 34.7575 21.5295 34.4572 20.7268C34.1489 19.8898 33.9942 19.0066 34.0002 18.1176V2.32751C34.0008 1.97521 34.1453 1.63757 34.402 1.38868C34.6586 1.1398 35.0063 0.999999 35.3689 1H38.9412C39.3035 1 39.651 1.13987 39.9072 1.38883C40.1635 1.63779 40.3074 1.97543 40.3074 2.32751V4.25843C40.3064 4.43398 40.3413 4.60799 40.41 4.77036C40.4787 4.93273 40.5798 5.08025 40.7076 5.20439C40.8354 5.32852 40.9872 5.4268 41.1543 5.49354C41.3214 5.56028 41.5005 5.59415 41.6812 5.59319Z" fill="#7D55C7"/>
<path d="M79.26 7.77003C77.9759 7.76805 76.7202 8.147 75.6516 8.85892C74.583 9.57085 73.7497 10.5837 73.2569 11.7694C72.7642 12.9552 72.6342 14.2604 72.8835 15.52C73.1328 16.7796 73.7501 17.9369 74.6573 18.8456C75.5645 19.7542 76.721 20.3734 77.9802 20.6246C79.2394 20.8758 80.5448 20.7479 81.7313 20.257C82.9178 19.766 83.9319 18.9342 84.6455 17.8667C85.359 16.7992 85.7399 15.544 85.7399 14.26C85.7373 12.5413 85.0541 10.8936 83.8397 9.67735C82.6253 8.46109 80.9787 7.77531 79.26 7.77003ZM79.26 18.41C78.4363 18.412 77.6307 18.1694 76.945 17.7131C76.2594 17.2567 75.7246 16.6071 75.4085 15.8466C75.0924 15.086 75.0092 14.2488 75.1694 13.4409C75.3296 12.633 75.726 11.8908 76.3084 11.3084C76.8908 10.7261 77.633 10.3297 78.4409 10.1695C79.2488 10.0093 80.086 10.0925 80.8465 10.4086C81.6071 10.7247 82.2567 11.2594 82.7131 11.9451C83.1694 12.6307 83.412 13.4364 83.41 14.26C83.4073 15.3599 82.9693 16.4139 82.1916 17.1916C81.4139 17.9693 80.3598 18.4074 79.26 18.41Z" fill="#7D55C7" stroke="#7D55C7" stroke-width="0.98" stroke-miterlimit="10"/>
<path d="M83.35 3H75.17C71.2101 3 68 6.21012 68 10.17V18.35C68 22.3099 71.2101 25.52 75.17 25.52H83.35C87.3099 25.52 90.52 22.3099 90.52 18.35V10.17C90.52 6.21012 87.3099 3 83.35 3Z" stroke="#7D55C7" stroke-width="4.88" stroke-miterlimit="10"/>
<g clip-path="url(#clip0_2260_1321)">
<path d="M117.889 6.2485C117.32 5.66645 117 4.88128 117 4.06314C117 3.24499 117.32 2.4598 117.889 1.87775C118.468 1.31345 119.24 0.998047 120.045 0.998047C120.849 0.998047 121.622 1.31345 122.2 1.87775C122.629 2.30737 122.921 2.85597 123.041 3.45388C123.16 4.05178 123.101 4.67202 122.87 5.23581C122.64 5.7996 122.249 6.28152 121.746 6.62035C121.244 6.95918 120.654 7.13964 120.05 7.1388C119.648 7.14642 119.25 7.0714 118.879 6.91833C118.507 6.76526 118.17 6.53735 117.889 6.2485ZM122.722 11.2119V22.4049C122.723 23.0907 122.454 23.7489 121.975 24.2354C121.496 24.7218 120.846 24.9967 120.167 25.0001H119.955C119.274 25.0001 118.621 24.7269 118.139 24.2407C117.658 23.7545 117.387 23.095 117.387 22.4074V11.2145C117.387 10.5268 117.658 9.86738 118.139 9.38115C118.621 8.89493 119.274 8.62176 119.955 8.62176H120.167C120.846 8.62509 121.496 8.89972 121.974 9.38559C122.453 9.87145 122.722 10.529 122.722 11.2145V11.2119Z" fill="#7D55C7"/>
<path d="M128.614 24.9998C128.277 24.9998 127.943 24.9328 127.632 24.8024C127.32 24.6721 127.037 24.4811 126.799 24.2403C126.561 23.9995 126.372 23.7137 126.243 23.3992C126.114 23.0846 126.048 22.7475 126.049 22.4072V15.6329C126.049 13.4387 126.66 11.6531 127.882 10.276C129.104 8.89896 130.818 8.21045 133.024 8.21045C135.229 8.21045 136.943 8.89896 138.167 10.276C139.391 11.6531 140.002 13.4387 140 15.6329V22.4072C140 23.0948 139.73 23.7542 139.248 24.2405C138.767 24.7267 138.114 24.9998 137.433 24.9998C136.752 24.9998 136.099 24.7267 135.617 24.2405C135.136 23.7542 134.865 23.0948 134.865 22.4072V15.6329C134.899 15.0288 134.722 14.432 134.366 13.9456C134.198 13.7515 133.991 13.5958 133.759 13.4892C133.527 13.3825 133.276 13.3273 133.021 13.3273C132.766 13.3273 132.514 13.3825 132.282 13.4892C132.05 13.5958 131.843 13.7515 131.676 13.9456C131.32 14.4325 131.144 15.029 131.176 15.6329V22.4072C131.176 23.0939 130.906 23.7526 130.426 24.2387C129.946 24.7248 129.294 24.9985 128.614 24.9998Z" fill="#7D55C7"/>
</g>
<defs>
<clipPath id="clip0_2260_1321">
<rect width="23" height="24" fill="white" transform="translate(117 1)"/>
</clipPath>
</defs>
</svg>
