<svg width="34" height="34" viewBox="0 0 34 34" fill="none" xmlns="http://www.w3.org/2000/svg">
<g clip-path="url(#clip0_143_459)">
<path d="M17 2.98164e-07C13.6371 2.98164e-07 10.3497 0.997224 7.55356 2.86556C4.7574 4.73389 2.57806 7.38942 1.29113 10.4963C0.00420087 13.6033 -0.332529 17.022 0.323543 20.3203C0.979614 23.6186 2.59902 26.6483 4.97695 29.0262C7.35489 31.4042 10.3846 33.0236 13.6829 33.6797C16.9812 34.3357 20.3999 33.999 23.5069 32.7121C26.6138 31.4251 29.2693 29.2458 31.1376 26.4496C33.006 23.6535 34.0032 20.3661 34.0032 17.0032C34.0036 14.7702 33.5641 12.559 32.7098 10.4958C31.8554 8.43273 30.603 6.55816 29.024 4.97919C27.445 3.40021 25.5705 2.14778 23.5074 1.29344C21.4443 0.4391 19.233 -0.000417907 17 2.98164e-07ZM25.4141 21.683L25.2263 22.1382C25.133 22.3656 24.9959 22.5724 24.8226 22.7467C24.6494 22.921 24.4435 23.0594 24.2167 23.1541C23.9899 23.2487 23.7466 23.2977 23.5009 23.2981C23.2551 23.2986 23.0117 23.2506 22.7845 23.1569L15.4624 20.1517C15.1165 20.0104 14.8209 19.7686 14.6137 19.4577C14.4066 19.1467 14.2975 18.7808 14.3004 18.4071C14.3004 18.3434 14.3004 18.2798 14.3004 18.2161V7.997C14.3004 7.50054 14.4976 7.02442 14.8487 6.67337C15.1997 6.32231 15.6758 6.12509 16.1723 6.12509H16.6626C17.159 6.12509 17.6352 6.32231 17.9862 6.67337C18.3373 7.02442 18.5345 7.50054 18.5345 7.997V16.8376L24.3953 19.2444C24.8527 19.434 25.2165 19.7968 25.4073 20.2537C25.5982 20.7105 25.6006 21.2243 25.4141 21.683Z" fill="#7D55C7"/>
</g>
<defs>
<clipPath id="clip0_143_459">
<rect width="34" height="34" fill="white"/>
</clipPath>
</defs>
</svg>
