<svg width="71" height="71" viewBox="0 0 71 71" fill="none" xmlns="http://www.w3.org/2000/svg">
<path d="M17.75 21.3001C17.75 17.534 19.246 13.9222 21.9091 11.2592C24.5721 8.59617 28.1839 7.1001 31.95 7.1001C35.7161 7.1001 39.3279 8.59617 41.9909 11.2592C44.6539 13.9222 46.15 17.534 46.15 21.3001C46.15 25.0662 44.6539 28.678 41.9909 31.341C39.3279 34.004 35.7161 35.5001 31.95 35.5001C28.1839 35.5001 24.5721 34.004 21.9091 31.341C19.246 28.678 17.75 25.0662 17.75 21.3001ZM7.09998 46.1501C7.09998 42.1989 10.3056 39.0501 14.2319 39.0501H44.982C44.5915 40.1613 44.375 41.3576 44.375 42.6001V42.8237C42.8506 43.2173 41.5003 44.1064 40.5364 45.3512C39.5725 46.5959 39.0496 48.1258 39.05 49.7001V63.325C36.7851 63.7119 34.3995 63.9001 31.95 63.9001C25.3647 63.9001 19.2303 62.5298 14.6792 59.6295C10.0571 56.683 7.09998 52.1496 7.09998 46.1501ZM47.925 46.1501V42.6001C47.925 40.7171 48.673 38.9111 50.0045 37.5796C51.336 36.2481 53.1419 35.5001 55.025 35.5001C56.908 35.5001 58.7139 36.2481 60.0454 37.5796C61.3769 38.9111 62.125 40.7171 62.125 42.6001V46.1501H63.9C64.8415 46.1501 65.7445 46.5241 66.4102 47.1899C67.076 47.8556 67.45 48.7586 67.45 49.7001V63.9001C67.45 64.8416 67.076 65.7446 66.4102 66.4103C65.7445 67.0761 64.8415 67.4501 63.9 67.4501H46.15C45.2085 67.4501 44.3055 67.0761 43.6397 66.4103C42.974 65.7446 42.6 64.8416 42.6 63.9001V49.7001C42.6 48.7586 42.974 47.8556 43.6397 47.1899C44.3055 46.5241 45.2085 46.1501 46.15 46.1501H47.925ZM51.475 42.6001V46.1501H58.575V42.6001C58.575 41.6586 58.201 40.7556 57.5352 40.0899C56.8695 39.4241 55.9665 39.0501 55.025 39.0501C54.0835 39.0501 53.1805 39.4241 52.5148 40.0899C51.849 40.7556 51.475 41.6586 51.475 42.6001ZM57.6875 56.8001C57.6875 56.094 57.407 55.4167 56.9077 54.9174C56.4083 54.4181 55.7311 54.1376 55.025 54.1376C54.3188 54.1376 53.6416 54.4181 53.1423 54.9174C52.643 55.4167 52.3625 56.094 52.3625 56.8001C52.3625 57.5062 52.643 58.1835 53.1423 58.6828C53.6416 59.1821 54.3188 59.4626 55.025 59.4626C55.7311 59.4626 56.4083 59.1821 56.9077 58.6828C57.407 58.1835 57.6875 57.5062 57.6875 56.8001Z" fill="#64449F"/>
</svg>
