<svg width="430" height="18" viewBox="0 0 430 18" fill="none" xmlns="http://www.w3.org/2000/svg">
<path d="M0 10H167.805" stroke="#AE95DC"/>
<path d="M264.293 10L430.001 10" stroke="#AE95DC"/>
<path d="M217.088 14.126C216.416 14.126 215.828 13.9813 215.324 13.692C214.83 13.3933 214.447 12.9733 214.176 12.432C213.906 11.8813 213.77 11.2327 213.77 10.486C213.77 9.73 213.906 9.08133 214.176 8.54C214.447 7.99867 214.83 7.58333 215.324 7.294C215.828 6.99533 216.416 6.846 217.088 6.846C217.77 6.846 218.358 6.99533 218.852 7.294C219.356 7.58333 219.744 7.99867 220.014 8.54C220.294 9.08133 220.434 9.73 220.434 10.486C220.434 11.2327 220.294 11.8813 220.014 12.432C219.744 12.9733 219.356 13.3933 218.852 13.692C218.358 13.9813 217.77 14.126 217.088 14.126ZM217.088 13.202C217.76 13.202 218.292 12.9733 218.684 12.516C219.076 12.0493 219.272 11.3727 219.272 10.486C219.272 9.59 219.072 8.91333 218.67 8.456C218.278 7.98933 217.751 7.756 217.088 7.756C216.426 7.756 215.898 7.98933 215.506 8.456C215.114 8.91333 214.918 9.59 214.918 10.486C214.918 11.3727 215.114 12.0493 215.506 12.516C215.898 12.9733 216.426 13.202 217.088 13.202Z" fill="black"/>
</svg>
