<svg width="11" height="24" viewBox="0 0 11 24" fill="none" xmlns="http://www.w3.org/2000/svg">
<path d="M7.68118 4.59319H9.56167C9.92426 4.59319 10.272 4.73297 10.5287 4.98186C10.7853 5.23074 10.9298 5.5684 10.9304 5.9207V9.04396C10.9298 9.39626 10.7853 9.73392 10.5287 9.9828C10.272 10.2317 9.92426 10.3715 9.56167 10.3715H7.64142C7.27883 10.3721 6.93133 10.5125 6.67517 10.7618C6.41902 11.0112 6.27514 11.3491 6.27514 11.7014V15.5319C6.27514 16.6035 6.50368 17.3091 6.96077 17.6486C7.41785 17.9882 8.30302 18.178 9.61631 18.2183C9.79713 18.217 9.97643 18.2504 10.1439 18.3166C10.3114 18.3828 10.4638 18.4805 10.5924 18.6041C10.7209 18.7276 10.8231 18.8746 10.893 19.0366C10.963 19.1987 10.9994 19.3725 11 19.5482V22.669C11 23.0218 10.8558 23.36 10.5991 23.6094C10.3424 23.8588 9.99425 23.999 9.63123 23.999H7.31847C6.21495 24.0159 5.11844 23.8258 4.08907 23.439C3.21045 23.1118 2.42332 22.5884 1.79123 21.9111C1.20997 21.2704 0.757496 20.5295 0.457244 19.7268C0.148856 18.8898 -0.0058463 18.0066 0.000168894 17.1176V1.32751C0.000826952 0.97521 0.145341 0.63757 0.401963 0.388683C0.658586 0.139796 1.00635 -5.802e-07 1.36894 0H4.94115C5.30351 0 5.65102 0.139874 5.90725 0.38883C6.16347 0.637786 6.30743 0.975432 6.30743 1.32751V3.25843C6.30645 3.43398 6.3413 3.60799 6.40999 3.77036C6.47868 3.93273 6.57983 4.08025 6.70759 4.20439C6.83535 4.32852 6.98718 4.42681 7.15429 4.49354C7.32141 4.56028 7.5005 4.59415 7.68118 4.59319Z" fill="#7D55C7"/>
</svg>
