<svg width="18" height="18" viewBox="0 0 18 18" fill="none" xmlns="http://www.w3.org/2000/svg">
<g clip-path="url(#clip0_2248_567)">
<path fill-rule="evenodd" clip-rule="evenodd" d="M13.2199 10.9969C12.9951 10.8737 11.8864 10.279 11.6782 10.1949C11.4701 10.1108 11.3192 10.0657 11.1563 10.2895C10.9934 10.5133 10.5349 11.0104 10.4021 11.1591C10.2694 11.3077 10.1276 11.3213 9.90133 11.1966C9.23214 10.9044 8.61951 10.4977 8.09122 9.9951C7.60646 9.51362 7.19575 8.96351 6.8724 8.36256C6.7472 8.12827 6.87241 8.00962 6.99157 7.89999C7.11074 7.79035 7.23142 7.64166 7.35209 7.5125C7.45038 7.40045 7.53215 7.27504 7.59494 7.14004C7.62887 7.07834 7.64667 7.00913 7.64667 6.93879C7.64667 6.86844 7.62887 6.79923 7.59494 6.73754C7.54215 6.62189 7.12582 5.47896 6.95084 5.01338C6.77587 4.5478 6.5828 4.61838 6.44855 4.61238C6.3143 4.60637 6.16194 4.58384 6.00959 4.57784C5.89314 4.57635 5.77765 4.59894 5.67042 4.64418C5.56318 4.68942 5.46654 4.75633 5.38661 4.84066C5.1174 5.07567 4.90042 5.36402 4.74951 5.68728C4.5986 6.01054 4.51711 6.3616 4.51023 6.71801C4.46799 7.84442 5.24934 8.96182 5.35945 9.12101C5.46957 9.28021 6.85279 11.7178 9.15314 12.7255C11.4535 13.7333 11.4671 13.4239 11.8879 13.4014C12.3088 13.3788 13.2681 12.8982 13.4808 12.3711C13.6935 11.8439 13.7086 11.3858 13.6558 11.2897C13.603 11.1936 13.4506 11.129 13.2244 11.0059L13.2199 10.9969ZM8.99627 16.4201C7.53064 16.422 6.09706 15.9931 4.87525 15.1871L2.9143 15.8134C2.82912 15.8394 2.73839 15.8415 2.65206 15.8196C2.56573 15.7977 2.48713 15.7525 2.42484 15.6891C2.36255 15.6257 2.31896 15.5464 2.29888 15.46C2.27879 15.3736 2.28296 15.2833 2.31094 15.1991L2.94146 13.3338C1.95578 11.9771 1.4574 10.3295 1.5266 8.65649C1.5958 6.98344 2.22855 5.38228 3.32293 4.11086C4.41732 2.83944 5.90965 1.97177 7.55959 1.64758C9.20953 1.3234 10.921 1.56156 12.4185 2.32373C13.9159 3.08589 15.1121 4.32769 15.8145 5.84914C16.5168 7.37058 16.6844 9.08311 16.2903 10.7109C15.8962 12.3388 14.9632 13.7871 13.6417 14.8228C12.3202 15.8584 10.6871 16.4211 9.00531 16.4201H8.99627ZM8.99627 0.000110957C7.40294 0.0010899 5.83843 0.423244 4.46263 1.22343C3.08683 2.02361 1.94908 3.17314 1.16563 4.55453C0.382175 5.93593 -0.0188889 7.49966 0.00344803 9.08592C0.0257849 10.6722 0.470713 12.2241 1.29275 13.5831L0.119194 17.0524C0.0762788 17.1783 0.0694642 17.3136 0.0995105 17.4431C0.129557 17.5726 0.195285 17.6912 0.289297 17.7856C0.383309 17.88 0.501882 17.9464 0.631712 17.9774C0.761541 18.0084 0.897473 18.0027 1.02425 17.9611L4.65654 16.8031C5.85887 17.4639 7.19712 17.842 8.56882 17.9084C9.94053 17.9749 11.3093 17.7279 12.5704 17.1864C13.8315 16.645 14.9514 15.8233 15.8443 14.7845C16.7373 13.7457 17.3797 12.5171 17.7223 11.193C18.0649 9.86887 18.0987 8.48423 17.821 7.1451C17.5433 5.80598 16.9615 4.54788 16.1201 3.46715C15.2788 2.38641 14.2002 1.5117 12.967 0.909973C11.7338 0.308251 10.3786 -0.0045226 9.00531 -0.00439449L8.99627 0.000110957Z" fill="#7D55C7"/>
</g>
<defs>
<clipPath id="clip0_2248_567">
<rect width="18" height="18" fill="white"/>
</clipPath>
</defs>
</svg>
